<?xml version="1.0" encoding="UTF-8"?>
<svg viewBox="0 0 271.25 168.75" xmlns="http://www.w3.org/2000/svg">
 <g transform="matrix(1.25,0,0,-1.25,0,168.75)">
  <g transform="scale(.24)">
   <path d="m503.82 59.394c5.086-5.5351 7.004-17.512 3.391-26.547-7.457-5.4219-12.992-6.7774-22.254-8.6993-17.398-5.7578-29.035 0.3399-40.445 0.1172-1.696 4.9688-0.68 11.293 6.214 13.664 17.622 8.6992 35.36 12.766 53.094 21.465" fill="#61574e"/>
   <path d="m503.82 59.394c5.086-5.5351 7.004-17.512 3.391-26.547-7.457-5.4219-12.992-6.7774-22.254-8.6993-17.398-5.7578-29.035 0.3399-40.445 0.1172-1.696 4.9688-0.68 11.293 6.214 13.664 17.622 8.6992 35.36 12.766 53.094 21.465z" fill="none" stroke="#231f20" stroke-width=".9"/>
   <path d="m503.15 58.715c4.856-5.1953 6.551-16.492 3.165-24.961-7.004-5.1992-12.204-6.5547-21.016-8.3594-16.379-5.3125-27.34 0.4493-38.07 0.2227-1.582 4.6328-0.676 10.621 5.761 12.879 16.719 8.1328 33.442 11.973 50.16 20.219" fill="#685d52"/>
   <path d="m502.36 57.926c4.633-4.8594 6.215-15.363 3.051-23.383-6.551-4.8594-11.523-6.1016-19.769-7.793-15.364-5.0859-25.645 0.3359-35.813 0.1094-1.469 4.4062-0.562 10.055 5.422 12.203 15.703 7.6797 31.406 11.293 47.109 18.863" fill="#706357"/>
   <path d="m501.68 57.246c4.293-4.5195 5.875-14.457 2.824-21.914-6.102-4.5156-10.734-5.6484-18.527-7.3398-14.348-4.6328-24.063 0.3359-33.555 0.2226-1.356 4.0704-0.676 9.2657 5.086 11.297 14.801 7.2305 29.484 10.617 44.172 17.734" fill="#7a685b"/>
   <path d="m131.7 66.059c-3.953-6.5508-5.875-13.219-5.648-19.883 5.875-4.1797 13.219-6.7774 21.918-7.9063 2.937 0.5664 5.984 1.1289 8.926 1.6953 12.312 13.442 21.687 27.898 20.332 42.809 7.683 10.055 7.797 22.141 4.293 35.243 1.695 9.152 19.093 38.293 20.902 47.441-14.801 2.828-35.023 29.938-49.824 26.66-0.563-11.859-23.27-69.242-19.543-78.054-8.813-16.602-1.016-31.29-1.356-48.004" fill="#514941"/>
   <path d="m131.7 66.059c-3.953-6.5508-5.875-13.219-5.648-19.883 5.875-4.1797 13.219-6.7774 21.918-7.9063 2.937 0.5664 5.984 1.1289 8.926 1.6953 12.312 13.442 21.687 27.898 20.332 42.809 7.683 10.055 7.797 22.141 4.293 35.243 1.695 9.152 19.093 38.293 20.902 47.441-14.801 2.828-35.023 29.938-49.824 26.66-0.563-11.859-23.27-69.242-19.543-78.054-8.813-16.602-1.016-31.29-1.356-48.004z" fill="none" stroke="#231f20" stroke-width=".9"/>
   <path d="m132.71 66.059c-3.613-6.5508-5.422-13.219-5.309-19.883 5.2-4.1797 11.75-6.7774 19.543-7.9063l8.137 1.6953c11.297 13.442 19.996 27.898 18.977 42.809 7.117 10.055 7.343 22.141 4.406 35.243 1.808 9.152 17.851 38.293 19.656 47.441-13.328 2.828-31.18 29.938-44.508 26.66-0.679-11.859-22.144-69.242-18.867-78.054-8.246-16.602-1.469-31.29-2.035-48.004" fill="#564e45"/>
   <path d="m133.84 66.059c-3.391-6.5508-5.199-13.219-5.199-19.883 4.632-4.1797 10.394-6.7774 17.398-7.9063 2.371 0.5664 4.859 1.1289 7.23 1.6953 10.282 13.442 18.301 27.898 17.625 42.809 6.551 10.055 7.004 22.141 4.629 35.243 1.696 9.152 16.61 38.293 18.305 47.441-11.863 2.828-27.227 29.938-39.203 26.66-0.902-11.859-20.899-69.242-18.188-78.054-7.683-16.602-1.808-31.29-2.597-48.004" fill="#5c534a"/>
   <path d="m134.86 66.059c-3.164-6.5508-4.746-13.219-4.859-19.883 3.957-4.1797 8.926-6.7774 15.027-7.9063 2.145 0.5664 4.293 1.1289 6.438 1.6953 9.379 13.442 16.609 27.898 16.383 42.809 5.875 10.055 6.55 22.141 4.632 35.243 1.692 9.152 15.364 38.293 17.055 47.441-10.277 2.828-23.383 29.938-34.004 26.66-0.902-11.859-19.656-69.242-17.508-78.054-7.003-16.602-2.148-31.29-3.164-48.004" fill="#61574e"/>
   <path d="m789.42 105.7c37.168 2.488 74.449-0.336 111.62-6.8866-44.058 0-86.086-1.2422-93.316-22.707-6.098 9.8281-12.199 19.656-18.301 29.594" fill="#514941"/>
   <path d="m789.42 105.7c37.168 2.488 74.449-0.336 111.62-6.8866-44.058 0-86.086-1.2422-93.316-22.707-6.098 9.8281-12.199 19.656-18.301 29.594z" fill="none" stroke="#231f20" stroke-width=".9"/>
   <path d="m765.58 85.148c1.809 4.1797 3.727 8.3594 5.648 12.535 10.958 7.5704 22.708 12.539 39.879-1.1289 5.309-22.023 2.258-37.953-4.632-47.781-14.348 12.086-26.547 24.285-40.895 36.375" fill="#645b51"/>
   <path d="m765.58 85.148c1.809 4.1797 3.727 8.3594 5.648 12.535 10.958 7.5704 22.708 12.539 39.879-1.1289 5.309-22.023 2.258-37.953-4.632-47.781-14.348 12.086-26.547 24.285-40.895 36.375z" fill="none" stroke="#231f20" stroke-width=".9"/>
   <path d="m384.41 78.707c5.082-5.5351 7.004-17.394 3.391-26.43-7.457-5.4218-12.992-6.8906-22.258-8.8125-17.395-5.6484-29.031 0.4532-40.555 0.2266-1.695 4.8555-0.679 11.184 6.211 13.668 17.738 8.5859 35.473 12.652 53.211 21.348" fill="#5e4f45"/>
   <path d="m384.41 78.707c5.082-5.5351 7.004-17.394 3.391-26.43-7.457-5.4218-12.992-6.8906-22.258-8.8125-17.395-5.6484-29.031 0.4532-40.555 0.2266-1.695 4.8555-0.679 11.184 6.211 13.668 17.738 8.5859 35.473 12.652 53.211 21.348z" fill="none" stroke="#231f20" stroke-width=".9"/>
   <path d="m378.77 74.078c3.613-3.8398 4.859-12.199 2.371-18.414-5.196-3.7266-9.035-4.7422-15.477-6.0977-12.086-3.9531-20.109 0.2266-28.129 0.1133-1.242 3.3867-1.695 10.844 3.051 12.539 12.313 5.9843 25.871 5.871 38.184 11.859" fill="#746357"/>
   <path d="m378.77 74.078c3.613-3.8398 4.859-12.199 2.371-18.414-5.196-3.7266-9.035-4.7422-15.477-6.0977-12.086-3.9531-20.109 0.2266-28.129 0.1133-1.242 3.3867-1.695 10.844 3.051 12.539 12.313 5.9843 25.871 5.871 38.184 11.859z" fill="none" stroke="#746357" stroke-width=".9"/>
   <path d="m376.51 72.27c3.16-3.2773 4.289-10.617 2.031-16.152-4.519-3.2774-7.906-4.1797-13.555-5.3086-10.621-3.5-17.738 0.2266-24.855 0.1133-1.016 2.9375-1.469 9.4883 2.824 10.957 10.848 5.3086 22.707 5.1953 33.555 10.391" fill="#7a685b"/>
   <path d="m376.51 72.27c3.16-3.2773 4.289-10.617 2.031-16.152-4.519-3.2774-7.906-4.1797-13.555-5.3086-10.621-3.5-17.738 0.2266-24.855 0.1133-1.016 2.9375-1.469 9.4883 2.824 10.957 10.848 5.3086 22.707 5.1953 33.555 10.391z" fill="none" stroke="#746357" stroke-width=".9"/>
   <path d="m374.133,70.5742c2.711-2.8242 3.73-9.1484 1.808-13.8906-3.953-2.8242-6.777-3.6172-11.75-4.6328-9.148-3.0508-15.25.2265-21.351.1133-.789,2.5976-1.242,8.1328 2.371,9.4882 9.379,4.5196 19.66,4.4063 28.922,8.9219" fill="#816f61"/>
   <path d="m374.133,70.5742c2.711-2.8242 3.73-9.1484 1.808-13.8906-3.953-2.8242-6.777-3.6172-11.75-4.6328-9.148-3.0508-15.25.2265-21.351.1133-.789,2.5976-1.242,8.1328 2.371,9.4882 9.379,4.5196 19.66,4.4063 28.922,8.9219z" fill="none" stroke="#746357" stroke-width=".9"/>
   <path d="m371.875,68.8828c2.258-2.4883 3.051-7.6836 1.469-11.75-3.278-2.3711-5.762-2.9375-9.828-3.8398-7.684-2.4844-12.879.2265-17.965.1133-.676,2.1445-1.016,6.7773 2.035,7.9062 7.793,3.8398 16.379,3.7266 24.289,7.5703" fill="#897667"/>
   <path d="m371.875,68.8828c2.258-2.4883 3.051-7.6836 1.469-11.75-3.278-2.3711-5.762-2.9375-9.828-3.8398-7.684-2.4844-12.879.2265-17.965.1133-.676,2.1445-1.016,6.7773 2.035,7.9062 7.793,3.8398 16.379,3.7266 24.289,7.5703z" fill="none" stroke="#746357" stroke-width=".9"/>
   <path d="m370.63 171.67c9.262-34.567 21.801-69.016 18.187-103.58-19.316-9.4882-33.441-8.3593-46.656-5.6484-12.879 33.773-25.758 67.551-38.75 101.21 22.481 2.711 44.848 5.422 67.219 8.02" fill="#3c3431"/>
   <path d="m370.63 171.67c9.262-34.567 21.801-69.016 18.187-103.58-19.316-9.4882-33.441-8.3593-46.656-5.6484-12.879 33.773-25.758 67.551-38.75 101.21 22.481 2.711 44.848 5.422 67.219 8.02z" fill="none" stroke="#231f20" stroke-width=".9"/>
   <path d="m367.7 171.67c8.133-34.567 19.09-69.016 15.93-103.58-16.836-9.4882-29.148-8.3593-40.672-5.6484-11.297 33.773-22.594 67.551-33.89 101.21 19.542 2.711 39.089 5.422 58.632 8.02" fill="#453b36"/>
   <path d="m364.87 171.67c6.891-34.567 16.266-69.016 13.555-103.58-14.461-9.4882-24.852-8.3593-34.793-5.6484-9.606 33.773-19.207 67.551-28.809 101.21 16.606 2.711 33.328 5.422 50.047 8.02" fill="#50453e"/>
   <path d="m361.93 171.67c5.761-34.567 13.554-69.016 11.296-103.58-11.976-9.4882-20.675-8.3593-28.808-5.6484-8.02 33.773-16.043 67.551-23.949 101.21 13.781 2.711 27.679 5.422 41.461 8.02" fill="#5e4f45"/>
   <path d="m447.23 35.672c5.988 1.8086 7.683-2.1446 7.457-5.875 0.113-2.9375-4.18-5.4219-9.039-5.3086s-7.797 2.5976-8.02 5.5351c0.563 2.2618 5.535 5.1954 9.602 5.6485" fill="#61574e"/>
   <path d="m447.23 35.672c5.988 1.8086 7.683-2.1446 7.457-5.875 0.113-2.9375-4.18-5.4219-9.039-5.3086s-7.797 2.5976-8.02 5.5351c0.563 2.2618 5.535 5.1954 9.602 5.6485z" fill="none" stroke="#231f20" stroke-width=".9"/>
   <path d="m436.16 23.699c-1.015 1.918-0.226 3.9531 2.485 5.7617 5.308-0.1132 8.019-1.4687 8.019-4.2929-1.469-2.5977-4.969-3.0508-10.504-1.4688" fill="#9e9c9d"/>
   <path d="m436.16 23.699c-1.015 1.918-0.226 3.9531 2.485 5.7617 5.308-0.1132 8.019-1.4687 8.019-4.2929-1.469-2.5977-4.969-3.0508-10.504-1.4688z" fill="none" stroke="#231f20" stroke-width=".9"/>
   <path d="m448.355,31.6055c6.555,1.9218 8.36-2.3711 8.137-6.4375 .223-3.1641-4.633-5.875-9.832-5.7617-5.308.1132-8.586,2.8242-8.812,6.0976 .679,2.4883 6.101,5.5391 10.507,6.1016" fill="#61574e"/>
   <path d="m448.355,31.6055c6.555,1.9218 8.36-2.3711 8.137-6.4375 .223-3.1641-4.633-5.875-9.832-5.7617-5.308.1132-8.586,2.8242-8.812,6.0976 .679,2.4883 6.101,5.5391 10.507,6.1016z" fill="none" stroke="#231f20" stroke-width=".9"/>
   <path d="m447.906,29.5703c4.067,1.2461 5.196-1.4648 4.969-3.9531 .113-1.918-2.711-3.6133-5.988-3.5-3.16.1133-5.196,1.8086-5.309,3.7266 .453,1.4687 3.727,3.3906 6.328,3.7265" fill="#897667"/>
   <path d="m447.906,29.5703c4.067,1.2461 5.196-1.4648 4.969-3.9531 .113-1.918-2.711-3.6133-5.988-3.5-3.16.1133-5.196,1.8086-5.309,3.7266 .453,1.4687 3.727,3.3906 6.328,3.7265z" fill="none" stroke="#897667" stroke-width=".9"/>
   <path d="m436.27,18.5039c-1.129,2.1445-.227,4.2891 2.71,6.3242 5.875-.1133 8.813-1.6953 8.813-4.6328-1.695-2.8242-5.426-3.3867-11.523-1.6914" fill="#bbbaba"/>
   <path d="m436.27,18.5039c-1.129,2.1445-.227,4.2891 2.71,6.3242 5.875-.1133 8.813-1.6953 8.813-4.6328-1.695-2.8242-5.426-3.3867-11.523-1.6914z" fill="none" stroke="#231f20" stroke-width=".9"/>
   <path d="m438.641,19.5195c-.676,1.2422-.227,2.3711 1.468,3.5 3.278,0 4.86-.9023 4.86-2.5976-.906-1.5821-3.051-1.8047-6.328-.9024" fill="#d5d4d5"/>
   <path d="m438.641,19.5195c-.676,1.2422-.227,2.3711 1.468,3.5 3.278,0 4.86-.9023 4.86-2.5976-.906-1.5821-3.051-1.8047-6.328-.9024z" fill="none" stroke="#d5d4d5" stroke-width=".9"/>
   <path d="m454.8 27.992c5.535 2.4844 9.148-1.8086 9.035-5.9883 0.227-3.1641-3.84-6.3242-8.133-6.6641s-7.906 2.0313-8.133 5.1954 3.051 7.1171 7.231 7.457" fill="#7a685b"/>
   <path d="m454.8 27.992c5.535 2.4844 9.148-1.8086 9.035-5.9883 0.227-3.1641-3.84-6.3242-8.133-6.6641s-7.906 2.0313-8.133 5.1954 3.051 7.1171 7.231 7.457z" fill="none" stroke="#231f20" stroke-width=".9"/>
   <path d="m455.14 25.73c3.16 1.3554 5.195-1.1289 5.082-3.3867 0.113-1.8086-2.149-3.6133-4.52-3.8399-2.484-0.1133-4.633 1.1289-4.633 2.9336-0.113 1.8086 1.582 4.0664 4.071 4.293" fill="#8e7b6b"/>
   <path d="m455.14 25.73c3.16 1.3554 5.195-1.1289 5.082-3.3867 0.113-1.8086-2.149-3.6133-4.52-3.8399-2.484-0.1133-4.633 1.1289-4.633 2.9336-0.113 1.8086 1.582 4.0664 4.071 4.293z" fill="none" stroke="#8e7b6b" stroke-width=".9"/>
   <path d="m447.34,13.5313c-1.016,2.1484-.227,4.2929 2.144,6.664 4.633.3399 7.118-.9023 7.118-3.9531-1.243-3.0469-4.403-3.9531-9.262-2.7109" fill="#bbbaba"/>
   <path d="m447.34,13.5313c-1.016,2.1484-.227,4.2929 2.144,6.664 4.633.3399 7.118-.9023 7.118-3.9531-1.243-3.0469-4.403-3.9531-9.262-2.7109z" fill="none" stroke="#231f20" stroke-width=".9"/>
   <path d="m449.148,14.7734c-.566,1.2422-.113,2.4844 1.243,3.8438 2.597.1133 3.953-.5664 3.953-2.2617-.676-1.6953-2.485-2.2578-5.196-1.5821" fill="#d5d4d5"/>
   <path d="m449.148,14.7734c-.566,1.2422-.113,2.4844 1.243,3.8438 2.597.1133 3.953-.5664 3.953-2.2617-.676-1.6953-2.485-2.2578-5.196-1.5821z" fill="none" stroke="#d5d4d5" stroke-width=".9"/>
   <path d="m467.898,27.1992c4.293.3399 8.024-2.0312 8.25-5.1953 .223-3.1641-3.164-5.9883-7.457-6.3242-4.406-.3399-8.132,2.0312-8.359,5.1953-.113,3.1641 3.164,5.9844 7.566,6.3242" fill="#7a685b"/>
   <path d="m467.898,27.1992c4.293.3399 8.024-2.0312 8.25-5.1953 .223-3.1641-3.164-5.9883-7.457-6.3242-4.406-.3399-8.132,2.0312-8.359,5.1953-.113,3.1641 3.164,5.9844 7.566,6.3242z" fill="none" stroke="#231f20" stroke-width=".9"/>
   <path d="m468.016,24.7148c2.484.2266 4.629-1.1289 4.742-2.9375 .113-1.8046-1.809-3.3867-4.293-3.6132s-4.633,1.1289-4.742,2.9375c-.114,1.8047 1.804,3.5 4.293,3.6132" fill="#8e7b6b"/>
   <path d="m468.016,24.7148c2.484.2266 4.629-1.1289 4.742-2.9375 .113-1.8046-1.809-3.3867-4.293-3.6132s-4.633,1.1289-4.742,2.9375c-.114,1.8047 1.804,3.5 4.293,3.6132z" fill="none" stroke="#8e7b6b" stroke-width=".9"/>
   <path d="m460.219,13.9844c-1.016,2.0312-.34,4.2929 2.144,6.664 4.746.3399 7.231-1.0156 7.231-4.0664-1.356-2.9375-4.406-3.8398-9.375-2.5976" fill="#bbbaba"/>
   <path d="m460.219,13.9844c-1.016,2.0312-.34,4.2929 2.144,6.664 4.746.3399 7.231-1.0156 7.231-4.0664-1.356-2.9375-4.406-3.8398-9.375-2.5976z" fill="none" stroke="#231f20" stroke-width=".9"/>
   <path d="m463.043,15.9063c-.34.6757-.113,1.3515.68,2.1445 1.578.1133 2.371-.3399 2.371-1.2422-.453-1.0156-1.469-1.3555-3.051-.9023" fill="#d5d4d5"/>
   <path d="m463.043,15.9063c-.34.6757-.113,1.3515.68,2.1445 1.578.1133 2.371-.3399 2.371-1.2422-.453-1.0156-1.469-1.3555-3.051-.9023z" fill="none" stroke="#d5d4d5" stroke-width=".9"/>
   <path d="m437.96 127.39c-2.262-29.594 1.355-43.372 8.808-70.821 4.747-4.5195 5.989-12.312 3.731-23.609 12.426 3.0508 24.965 5.9883 37.504 9.0352-16.719 28.469-33.438 56.934-50.043 85.395" fill="#4f4239"/>
   <path d="m437.96 127.39c-2.262-29.594 1.355-43.372 8.808-70.821 4.747-4.5195 5.989-12.312 3.731-23.609 12.426 3.0508 24.965 5.9883 37.504 9.0352-16.719 28.469-33.438 56.934-50.043 85.395z" fill="none" stroke="#231f20" stroke-width=".9"/>
   <path d="m439.32 127.39c-2.148-29.594 1.469-43.372 8.586-70.821 4.629-4.5195 5.871-12.312 3.5-23.609 12.203 3.0508 24.403 5.9883 36.602 9.0352-16.266 28.469-32.535 56.934-48.688 85.395" fill="#56493f"/>
   <path d="m440.79 127.39c-2.148-29.594 1.356-43.372 8.246-70.821 4.52-4.5195 5.762-12.312 3.5-23.609 11.75 3.0508 23.613 5.9883 35.473 9.0352-15.817 28.469-31.516 56.934-47.219 85.395" fill="#5f5146"/>
   <path d="m442.14 127.39c-2.036-29.594 1.355-43.372 8.132-70.821 4.293-4.5195 5.422-12.312 3.278-23.609 11.523 3.0508 22.933 5.9883 34.453 9.0352-15.363 28.469-30.613 56.934-45.863 85.395" fill="#69594e"/>
   <path d="m538.96 375.33c18.301-27.336 35.019-56.141 41.008-95.672 21.691-64.387 55.808-120.53 95.687-172.82 40.219-18.301 80.438-24.285 120.65-22.816 15.14-8.3593 18.191-22.707 9.039-43.266-49.254 0.793-98.625 2.2617-147.99 9.1524-67.105 17.394-126.3 54.555-157.03 120.64-9.941 10.617-12.879 21.234-22.82 31.852 20.559 57.722 41.008 115.22 61.457 172.94" fill="#65564b"/>
   <path d="m538.96 375.33c18.301-27.336 35.019-56.141 41.008-95.672 21.691-64.387 55.808-120.53 95.687-172.82 40.219-18.301 80.438-24.285 120.65-22.816 15.14-8.3593 18.191-22.707 9.039-43.266-49.254 0.793-98.625 2.2617-147.99 9.1524-67.105 17.394-126.3 54.555-157.03 120.64-9.941 10.617-12.879 21.234-22.82 31.852 20.559 57.722 41.008 115.22 61.457 172.94z" fill="none" stroke="#231f20" stroke-width=".9"/>
   <path d="m546.53 353.64c15.028-23.043 28.809-47.215 33.782-79.973 17.734-53.543 61.57-124.93 94.332-169.1 33.101-16.152 86.082-25.187 119.18-25.074 12.539-7.3437 17.852-7.9062 10.395-24.512-35.024 2.0312-86.086-1.0156-128.9 6.0976-55.355 16.266-135.34 69.809-160.64 125.04-8.137 9.039-10.621 17.848-18.754 26.887 16.945 46.875 33.777 93.754 50.609 140.63" fill="#7d6c5e"/>
   <path d="m546.42 350.59c14.348-19.09 30.051-49.246 32.871-80.649 15.93-47.781 58.184-119.96 87.441-159.38 26.325-18.637 81.227-31.063 113.09-31.29 11.071-6.4375 25.872-4.4062 19.094-19.203-30.617 2.5977-89.926 2.2578-131.61 11.746-49.371 14.574-120.66 65.18-143.14 114.43-7.23 8.024-9.488 15.817-16.719 23.949 15.024 41.793 23.95 98.61 38.977 140.4" fill="#8a7465"/>
   <path d="m546.19 347.55c13.668-15.137 31.407-51.172 32.082-81.442 14.008-41.91 54.793-114.76 80.438-149.44 19.656-21.352 76.367-37.164 107.1-37.504 9.714-5.7618 33.777-1.0157 27.902-14.008-26.434 3.1641-93.879 5.5352-134.44 17.508-43.265 12.766-105.85 60.32-125.62 103.58-6.437 7.004-8.359 14.008-14.683 21.012 13.219 36.711 14.008 103.58 27.226 140.29" fill="#99806c"/>
   <path d="m546.08 344.5c12.988-11.297 32.649-53.09 31.18-82.121 12.086-36.258 51.402-109.79 73.543-139.61 12.765-23.946 71.512-43.262 100.89-43.828 8.472-4.9688 41.796 2.4844 36.828-8.6953-22.145 3.8398-97.836 8.8086-137.26 23.156-37.281 11.066-91.168 55.688-108.23 92.848-5.422 6.102-7.117 12.086-12.652 18.074 11.41 31.629 4.293 108.55 15.703 140.18" fill="#a88b75"/>
   <path d="m552.86 246.45c19.208-43.715 59.875-84.941 97.946-124.93-42.59 52.976-89.02 109.68-93.653 192.93-1.468-22.703-2.824-45.41-4.293-68" fill="#d1a487"/>
   <path d="m327.59,54.9883c6.215,1.8086 7.906-2.1485 7.68-5.875 .113-2.9375-4.29-5.4219-9.149-5.3086s-7.797,2.7109-8.023,5.5351c.566,2.2579 5.539,5.1954 9.492,5.6485" fill="#61574e"/>
   <path d="m327.59,54.9883c6.215,1.8086 7.906-2.1485 7.68-5.875 .113-2.9375-4.29-5.4219-9.149-5.3086s-7.797,2.7109-8.023,5.5351c.566,2.2579 5.539,5.1954 9.492,5.6485z" fill="none" stroke="#231f20" stroke-width=".9"/>
   <path d="m316.63 43.016c-1.02 2.0313-0.227 3.9532 2.484 5.8711 5.309-0.1133 8.02-1.5781 8.02-4.289-1.469-2.6016-4.969-3.1641-10.504-1.5821" fill="#61574e"/>
   <path d="m316.63 43.016c-1.02 2.0313-0.227 3.9532 2.484 5.8711 5.309-0.1133 8.02-1.5781 8.02-4.289-1.469-2.6016-4.969-3.1641-10.504-1.5821z" fill="none" stroke="#231f20" stroke-width=".9"/>
   <path d="m328.83 51.035c6.664 1.8046 8.473-2.375 8.246-6.5508 0.227-3.1641-4.633-5.875-9.941-5.7617s-8.586 2.9375-8.813 6.0976c0.68 2.4883 6.102 5.6485 10.508 6.2149" fill="#61574e"/>
   <path d="m328.83 51.035c6.664 1.8046 8.473-2.375 8.246-6.5508 0.227-3.1641-4.633-5.875-9.941-5.7617s-8.586 2.9375-8.813 6.0976c0.68 2.4883 6.102 5.6485 10.508 6.2149z" fill="none" stroke="#231f20" stroke-width=".9"/>
   <path d="m316.75 37.816c-1.133 2.2617-0.226 4.293 2.707 6.4414 5.875-0.1133 8.813-1.6953 8.699-4.7461-1.578-2.8242-5.308-3.3867-11.406-1.6953" fill="#61574e"/>
   <path d="m316.75 37.816c-1.133 2.2617-0.226 4.293 2.707 6.4414 5.875-0.1133 8.813-1.6953 8.699-4.7461-1.578-2.8242-5.308-3.3867-11.406-1.6953z" fill="none" stroke="#231f20" stroke-width=".9"/>
   <path d="m335.383,47.3086c5.539,2.4844 9.152-1.8086 9.039-5.9883 .226-3.164-3.84-6.3242-8.133-6.664-4.406-.3399-8.137,2.0312-8.25,5.1953-.223,3.164 3.051,7.1172 7.344,7.457" fill="#61574e"/>
   <path d="m335.383,47.3086c5.539,2.4844 9.152-1.8086 9.039-5.9883 .226-3.164-3.84-6.3242-8.133-6.664-4.406-.3399-8.137,2.0312-8.25,5.1953-.223,3.164 3.051,7.1172 7.344,7.457z" fill="none" stroke="#231f20" stroke-width=".9"/>
   <path d="m327.816,32.9609c-1.019,2.0352-.339,4.293 2.145,6.5508 4.746.4531 7.23-.9023 7.23-3.9531-1.355-3.0508-4.406-3.8398-9.375-2.5977" fill="#918f90"/>
   <path d="m327.816,32.9609c-1.019,2.0352-.339,4.293 2.145,6.5508 4.746.4531 7.23-.9023 7.23-3.9531-1.355-3.0508-4.406-3.8398-9.375-2.5977z" fill="none" stroke="#231f20" stroke-width=".9"/>
   <path d="m348.488,46.6289c4.293.2266 8.024-2.0312 8.246-5.1953 .227-3.1641-3.16-6.1016-7.453-6.3281-4.406-.336-8.136,1.9218-8.359,5.0859-.227,3.1602 3.16,6.0977 7.566,6.4375" fill="#61574e"/>
   <path d="m348.488,46.6289c4.293.2266 8.024-2.0312 8.246-5.1953 .227-3.1641-3.16-6.1016-7.453-6.3281-4.406-.336-8.136,1.9218-8.359,5.0859-.227,3.1602 3.16,6.0977 7.566,6.4375z" fill="none" stroke="#231f20" stroke-width=".9"/>
   <path d="m348.602,44.9336c3.05.2266 5.761-1.4688 5.875-3.7266 .226-2.2578-2.258-4.2929-5.309-4.5195-3.164-.2227-5.762,1.4688-5.988,3.7266-.114,2.2617 2.258,4.2929 5.422,4.5195" fill="#78675a"/>
   <path d="m340.809,33.3008c-1.02,2.1445-.34,4.293 2.031,6.664 4.859.3399 7.344-1.0156 7.344-3.9531-1.356-3.0508-4.407-3.9531-9.375-2.7109" fill="#918f90"/>
   <path d="m340.809,33.3008c-1.02,2.1445-.34,4.293 2.031,6.664 4.859.3399 7.344-1.0156 7.344-3.9531-1.356-3.0508-4.407-3.9531-9.375-2.7109z" fill="none" stroke="#231f20" stroke-width=".9"/>
   <path d="m342.277,34.3164c-.566,1.3555-.113,2.8242 1.356,4.293 3.047.2265 4.629-.6797 4.629-2.5977-.789-1.9219-2.824-2.4844-5.985-1.6953" fill="#abaaaa"/>
   <path d="m342.277,34.3164c-.566,1.3555-.113,2.8242 1.356,4.293 3.047.2265 4.629-.6797 4.629-2.5977-.789-1.9219-2.824-2.4844-5.985-1.6953z" fill="none" stroke="#abaaaa" stroke-width=".9"/>
   <path d="m140.28 123.1c-2.824 17.054 13.219 61.109 22.594 78.164 16.27-0.789 29.602-1.469 45.754-2.258-9.828-19.77-31.066-50.832-40.895-70.598-16.605-16.152-19.882-14.121-27.453-5.308" fill="#6b6157"/>
   <path d="m140.96 125.81c-2.375 14.23 10.957 51.054 18.863 65.289 14.801 4.968 25.985 4.402 38.188-1.922-8.25-16.492-25.985-42.473-34.117-58.852-13.899-13.555-16.61-11.859-22.934-4.515" fill="#70665b"/>
   <path d="m141.64 128.52c-1.922 11.407 8.812 40.891 15.14 52.411 13.328 10.843 22.254 10.281 30.614-1.582-6.551-13.215-20.786-34-27.453-47.215-11.071-10.844-13.215-9.489-18.301-3.614" fill="#776d61"/>
   <path d="m142.32 131.23c-1.468 8.582 6.664 30.836 11.411 39.422 11.972 16.715 18.64 16.266 23.043-1.133-4.969-9.937-15.704-25.64-20.672-35.578-8.36-8.132-9.942-7.117-13.782-2.711" fill="#7e7367"/>
   <path d="m125.71 236.85c5.652 60.66 29.035 115.55 72.754 161.08 16.269 49.812 42.93 108.89 90.832 135.77 51.965 41.231 98.625 27.449 144.49 5.762 84.391-58.063 121.67-166.5 111.62-220.72-9.828-30.949 2.825-49.59-1.355-68.902-38.297-39.535-89.02-62.805-141.89-74.102-139.52-51.621-272.83-4.179-276.44 61.11" fill="#51443b"/>
   <path d="m125.71 236.85c5.652 60.66 29.035 115.55 72.754 161.08 16.269 49.812 42.93 108.89 90.832 135.77 51.965 41.231 98.625 27.449 144.49 5.762 84.391-58.063 121.67-166.5 111.62-220.72-9.828-30.949 2.825-49.59-1.355-68.902-38.297-39.535-89.02-62.805-141.89-74.102-139.52-51.621-272.83-4.179-276.44 61.11z" fill="none" stroke="#231f20" stroke-width=".9"/>
   <path d="m125.71 240.24c5.652 58.848 29.035 112.05 72.754 156.22 16.269 48.344 42.93 105.61 90.832 131.71 51.965 39.875 98.625 26.543 144.49 5.535 84.391-56.254 121.67-161.41 111.62-213.94-4.968-28.692 4.973-47.555-1.355-66.871-38.297-38.403-89.02-60.883-141.89-71.84-139.52-50.039-272.83-4.067-276.44 59.191" fill="#55473e"/>
   <path d="m125.71 243.74c5.652 56.93 29.035 108.55 72.754 151.25 16.269 46.762 42.93 102.34 90.832 127.53 51.965 38.742 98.625 25.754 144.49 5.422 84.391-54.559 121.67-156.45 111.62-207.28-0.226-26.43 7.118-45.406-1.355-64.722-38.297-37.165-89.02-58.965-141.89-69.583-139.52-48.457-272.83-3.953-276.44 57.383" fill="#5a4c42"/>
   <path d="m125.71 247.13c5.652 55.121 29.035 105.05 72.754 146.39 16.269 45.296 42.93 98.949 90.832 123.35 51.965 37.504 98.625 24.965 144.49 5.309 84.391-52.75 121.67-151.36 111.62-200.61 4.52-24.058 9.266-43.261-1.355-62.691-38.297-35.922-89.02-56.93-141.89-67.211-139.52-46.988-272.83-3.84-276.44 55.465" fill="#5f5146"/>
   <path d="m125.71 250.63c5.652 53.203 29.035 101.43 72.754 141.42 16.269 43.715 42.93 95.676 90.832 119.28 51.965 36.148 98.625 24.063 144.49 4.973 84.391-50.946 121.67-146.17 111.62-193.84 9.266-21.801 11.411-41.117-1.355-60.543-38.297-34.68-89.02-55.125-141.89-64.953-139.52-45.407-272.83-3.727-276.44 53.656" fill="#65564b"/>
   <path d="m125.71 254.02c5.652 51.398 29.035 97.937 72.754 136.57 16.269 42.246 42.93 92.285 90.832 115.1 51.965 35.019 98.625 23.269 144.49 4.859 84.391-49.137 121.67-141.2 111.62-187.06 14.122-19.539 13.668-39.082-1.355-58.625-38.297-33.433-89.02-53.086-141.89-62.574-139.52-43.828-272.83-3.617-276.44 51.731" fill="#6b5b4f"/>
   <path d="m132.26 254.81c5.422 51.847 27.789 98.722 69.476 137.58 15.59 42.582 43.832 124.36 89.586 147.29 49.707 35.246 94.219 23.496 138.05 4.972 80.664-49.59 128.34-146.62 118.73-192.93 13.559-19.657 12.317-62.016-1.918-81.668-36.605-33.778-88.007-33.664-138.39-43.375-133.31-44.055-272.15-27.676-275.54 28.125" fill="#857264"/>
   <path d="m142.65 261.7c0.907 49.364 16.27 92.625 65.528 130.46 13.101 43.262 40.894 125.16 88.679 144.02 48.352 38.293 91.961 22.476 133.76 3.277 77.16-47.555 121.44-140.75 112.29-185.14 12.879-18.863 11.863-59.527-1.922-78.394-35.019-32.192-84.277-32.192-132.52-41.453-127.77-42.247-262.55-26.207-265.82 27.222" fill="#907c6b"/>
   <path d="m153.05 268.59c-3.5 46.988 4.746 86.41 61.57 123.35 10.621 43.828 37.957 125.94 87.781 140.63 46.997 41.453 89.7 21.688 129.35 1.692 73.883-45.407 114.67-134.98 105.97-177.45 12.312-17.961 11.297-56.817-1.809-74.891-33.555-30.836-80.664-30.836-126.87-39.648-122.12-40.438-252.83-24.739-256 26.32" fill="#9b8674"/>
   <path d="m163.44 275.59c-7.91 44.504-6.777 80.199 57.614 116.12 8.136 44.394 34.91 126.74 86.879 137.36 45.64 44.504 87.437 20.786 124.94 0 70.496-43.261 107.89-129.22 99.641-169.66 11.75-17.281 10.734-54.332-1.805-71.504-31.973-29.48-76.938-29.367-121-37.839-116.59-38.629-243.23-23.157-246.28 25.531" fill="#a6907b"/>
   <path d="m173.84 282.48c-12.43 42.137-18.191 73.989 53.66 109 5.535 44.957 31.973 127.53 85.973 134.08 44.398 47.442 85.066 19.879 120.65-1.582 67.106-41.343 101.11-123.46 93.09-162.09 11.184-16.379 10.281-51.621-1.695-68-30.387-28.125-73.207-28.125-115.12-36.032-111.05-36.711-233.63-21.687-236.56 24.621" fill="#b39c85"/>
   <path d="m136.89 480.27c-17.395 13.668 8.586 48.457-37.055 45.523-57.613-19.883-91.504-82.461-98.508-138.71 4.7422-49.59 13.215-92.625 39.426-130.36 51.516-57.043 91.508-61.672 157.37-55.461 15.817 3.953 29.828 12.879 43.723 22.593-6.664 24.625 6.664 49.024 19.656 73.532-6.437 53.882-30.051 80.765-68.801 23.722-12.086-5.422-17.394-19.879-29.597-25.187-27.567 0.562-52.758 5.308-76.481 17.508-19.434 23.605-32.422 51.394-28.469 86.636-1.1328 20.785 3.5 39.762 22.707 58.512 16.043 8.699 39.993 12.992 56.032 21.688" fill="#6b5b4f"/>
   <path d="m136.89 480.27c-17.395 13.668 8.586 48.457-37.055 45.523-57.613-19.883-91.504-82.461-98.508-138.71 4.7422-49.59 13.215-92.625 39.426-130.36 51.516-57.043 91.508-61.672 157.37-55.461 15.817 3.953 29.828 12.879 43.723 22.593-6.664 24.625 6.664 49.024 19.656 73.532-6.437 53.882-30.051 80.765-68.801 23.722-12.086-5.422-17.394-19.879-29.597-25.187-27.567 0.562-52.758 5.308-76.481 17.508-19.434 23.605-32.422 51.394-28.469 86.636-1.1328 20.785 3.5 39.762 22.707 58.512 16.043 8.699 39.993 12.992 56.032 21.688z" fill="none" stroke="#231f20" stroke-width=".9"/>
   <path d="m103.34 510.32c-13.668-5.875-27.567-11.972-42.25-18.75-3.6171-0.566-23.613-21.011-27.226-19.543 6.7773 16.266 41.461 46.54 66.313 54.219 1.019-5.308 2.148-10.617 3.164-15.926" fill="#a48e6d"/>
   <path d="m102.44 512.24c-11.864-5.086-23.727-10.281-36.379-16.156-3.1641-0.449-21.352-17.055-24.516-15.926 5.875 14.008 36.719 39.086 58.066 45.746 0.9066-4.515 1.9216-9.148 2.8286-13.664" fill="#aa9371"/>
   <path d="m101.42 514.04c-9.8282-4.18-19.883-8.582-30.387-13.441-2.5977-0.34-19.207-13.215-21.805-12.2 4.9726 11.746 32.082 31.629 49.934 37.164 0.6757-3.839 1.4688-7.683 2.2578-11.523" fill="#b09875"/>
   <path d="m100.4 515.96c-7.9059-3.391-15.929-6.891-24.402-10.844-2.1445-0.34-16.945-9.375-19.09-8.473 3.9531 9.375 27.336 24.059 41.684 28.579 0.6796-3.051 1.2421-6.211 1.8082-9.262" fill="#b59d78"/>
   <path d="m58.488 372.96c3.2773-22.93 12.543-41.68 26.664-58.852 23.723-12.199 50.383-17.621 77.95-18.183 12.203 5.308 17.511 19.765 29.597 25.187 37.848 55.688 61.344 31.403 68.352-20.105-0.453-2.485-1.02-5.082-1.582-7.57-7.344-13.778-14.461-27.672-17.625-41.34 0.226 0 0.566 0 0.789 0.113-0.336-0.34-0.676-0.566-0.903-0.793-16.042-2.598-31.972-5.195-48.011-7.793-157.71 4.746-135 129.45-135.23 129.34" fill="#b09986"/>
   <path d="m59.621 366.3c5.3086-21.688 14.234-39.082 29.598-55.574 22.367-10.957 47.336-15.817 73.316-16.266 11.414 4.856 16.383 17.848 27.906 22.59 35.586 50.152 57.731 28.238 64.395-17.961-0.453-2.371-1.016-4.629-1.582-6.777-6.891-12.539-13.559-24.961-16.606-37.274 0.336 0 0.563 0.113 0.79 0.113-0.34-0.226-0.567-0.566-0.903-0.679-15.027-2.371-30.164-4.742-45.191-7.117-137.82 3.05-127.66 107.2-131.72 118.94" fill="#b39c85"/>
   <path d="m60.8633,359.52c7.2305-20.446 15.8164-36.485 32.4219-52.188 21.0118-9.715 44.1718-13.894 68.5738-14.344 10.731,4.293 15.477,15.813 26.211,20.106 33.438,44.504 54.227,25.078 60.438-16.039-.336-2.035-.903-4.067-1.356-5.989-6.55-11.07-12.765-22.14-15.589-33.093 .226,0 .453.113.679.113-.226-.227-.566-.453-.793-.566-14.234-2.149-28.355-4.18-42.476-6.329-117.9417,1.247-120.3167,84.832-128.1097,108.329" fill="#b79f84"/>
   <path d="m62.106 352.74c9.1523-19.203 17.285-33.773 35.246-48.683 19.543-8.586 41.011-12.2 63.941-12.539 10.055 3.726 14.348 13.781 24.402 17.507 31.407 38.969 50.84 21.914 56.602-14.007-0.34-1.692-0.793-3.5-1.356-5.196-5.988-9.715-11.863-19.316-14.574-28.804h0.676c-0.227-0.223-0.563-0.336-0.789-0.45-13.219-1.808-26.438-3.73-39.652-5.535-97.95-0.453-112.97 62.465-124.5 97.707" fill="#bda485"/>
   <path d="m63.348 346.08c11.07-17.961 18.867-31.289 38.07-45.41 18.191-7.34 37.961-10.277 59.199-10.617 9.375 3.164 13.442 11.859 22.821 15.023 29.144 33.211 47.222 18.75 52.644-11.972-0.453-1.469-0.789-3.051-1.242-4.52-5.649-8.246-11.184-16.492-13.559-24.625h0.567l-0.68-0.34-36.941-4.742c-78.063-2.262-105.63 39.984-120.88 87.203" fill="#c0a784"/>
   <path d="m64.5898,339.301c12.9922-16.719 20.4493-28.578 40.7812-42.02 16.949-6.101 34.91-8.472 54.567-8.699 8.699,2.711 12.542,9.828 21.128,12.426 27,27.676 43.719,15.586 48.688-9.942-.336-1.242-.676-2.484-1.129-3.726-5.195-6.777-10.281-13.668-12.539-20.559 .227,0 .453,0 .566.114-.226-.227-.453-.34-.679-.454-11.41-1.242-22.821-2.484-34.118-3.726-58.179-4.067-98.2847,17.621-117.2652,76.586" fill="#c6ac84"/>
   <path d="m124.46 241.03c19.883-4.746 42.254-11.632 68.914-6.664 11.973 1.356 24.062 6.778 36.039 5.196-4.52-11.071-17.172-19.317-35.363-25.528-33.098-2.148-55.242 7.68-69.59 26.996" fill="#7e7367"/>
   <path d="m130.11 239.1c17.399-4.402 37.848-9.937 61.457-5.871 10.621 1.016 21.239 5.762 31.86 4.18-4.18-9.715-15.364-16.832-31.52-22.141-29.258-1.468-49.48 6.551-61.797 23.832" fill="#857868"/>
   <path d="m135.648,237.188c15.141-4.067 33.555-8.247 54.004-5.083 9.262.676 18.528,4.629 27.676,3.047-3.726-8.359-13.555-14.343-27.566-18.636-25.418-.789-43.606,5.535-54.114,20.672" fill="#8f806a"/>
   <path d="m141.3 235.27c12.652-3.84 29.148-6.551 46.547-4.293 7.793 0.34 15.816 3.504 23.496 2.035-3.387-7.004-11.86-11.86-23.723-15.25-21.578-0.227-37.847 4.519-46.32 17.508" fill="#99876b"/>
   <path d="m146.836,233.348c10.277-3.504 24.852-4.973 39.199-3.618 6.328.114 12.992,2.485 19.207,1.02-2.937-5.648-9.941-9.266-19.883-11.75-17.511.453-31.859,3.391-38.523,14.348" fill="#a48e6d"/>
   <path d="m168.297,480.383c.453-1.016 1.469-3.391 1.922-4.52 .566-2.371-.903-4.289-4.18-5.758-2.937-.906-5.875-1.695-8.812-2.601l-12.2,5.762c-7.57,4.519-18.527,2.261-29.375.339-2.824,2.372-5.535,4.633-8.359,7.004l-2.031,12.875c.336,2.375.789,4.746 1.129,7.231-5.422,7.344-9.7152,15.023-6.4418,25.187 23.0468,2.489 42.0278,1.922 58.5198-7.113 3.164-3.277 6.441-8.812 5.652-10.957 3.047-3.613 6.211-4.519 9.262-8.133 5.195-5.875 5.762-11.183 3.164-17.847-2.375-1.696-5.535-1.243-8.25-1.469" fill="#88755a"/>
   <path d="m168.297,480.383c.453-1.016 1.469-3.391 1.922-4.52 .566-2.371-.903-4.289-4.18-5.758-2.937-.906-5.875-1.695-8.812-2.601l-12.2,5.762c-7.57,4.519-18.527,2.261-29.375.339-2.824,2.372-5.535,4.633-8.359,7.004l-2.031,12.875c.336,2.375.789,4.746 1.129,7.231-5.422,7.344-9.7152,15.023-6.4418,25.187 23.0468,2.489 42.0278,1.922 58.5198-7.113 3.164-3.277 6.441-8.812 5.652-10.957 3.047-3.613 6.211-4.519 9.262-8.133 5.195-5.875 5.762-11.183 3.164-17.847-2.375-1.696-5.535-1.243-8.25-1.469z" fill="none" stroke="#231f20" stroke-width=".9"/>
   <path d="m166.605,481.512c.45-1.129 1.469-3.274 1.918-4.407 .567-2.371-.789-4.179-4.066-5.531-2.824-.906-5.535-1.695-8.359-2.488-3.953,1.809-7.907,3.73-11.75,5.535-7.231,4.406-17.848,2.149-28.129.34-2.711,2.258-5.422,4.519-8.133,6.664-.68,4.18-1.246,8.359-1.922,12.426 .34,2.371.676,4.742 1.129,7.004-5.195,7.117-9.2617,14.57-6.211,24.398 22.141,2.371 40.328,1.809 56.145-7.004 3.05-3.051 6.214-8.359 5.425-10.504 2.934-3.504 5.985-4.293 8.922-7.797 4.973-5.757 5.535-10.843 3.051-17.281-2.371-1.582-5.422-1.242-8.02-1.355" fill="#8e7a5d"/>
   <path d="m165.023,482.527c.45-1.015 1.356-3.16 1.805-4.179 .453-2.258-.789-4.063-3.953-5.422-2.598-.789-5.309-1.578-8.02-2.371l-11.183,5.422c-6.895,4.179-17.059,2.035-27,.339-2.602,2.145-5.199,4.293-7.684,6.438-.675,3.953-1.242,7.91-1.922,11.973 .34,2.261.68,4.519 1.133,6.777-4.972,6.777-8.9256,14.008-5.988,23.383 21.238,2.375 38.637,1.808 53.773-6.664 2.938-2.938 5.875-8.133 5.2-10.164 2.82-3.391 5.757-4.18 8.582-7.571 4.746-5.422 5.199-10.39 2.824-16.601-2.145-1.473-5.082-1.133-7.567-1.36" fill="#958163"/>
   <path d="m163.328,483.66 1.809-4.066c.449-2.149-.793-3.844-3.731-5.199-2.597-.79-5.195-1.469-7.679-2.258-3.618,1.695-7.231,3.39-10.848,5.195-6.551,3.953-16.266,1.922-25.758.227-2.371,2.144-4.855,4.179-7.34,6.214-.566,3.84-1.246,7.68-1.808,11.52 .34,2.258.675,4.406 1.015,6.551-4.633,6.551-8.472,13.441-5.648,22.594 20.336,2.257 36.941,1.691 51.402-6.442 2.824-2.824 5.649-7.793 4.973-9.715 2.711-3.273 5.422-4.062 8.133-7.34 4.519-5.308 5.082-10.054 2.824-16.039-2.149-1.468-4.973-1.129-7.344-1.242" fill="#9d8868"/>
   <path d="m157.453,484.336c-1.582-.902-9.828-.34-11.863,1.242-5.309-3.164-19.543,1.02-25.418,6.891-9.262,2.937-4.52,10.844 4.746,10.281 2.145.676 4.406,1.242 6.664,1.918 3.504.68 7.344-.227 11.637-3.5 2.597-2.938 12.539-14.008 14.234-16.832" fill="#ae9773"/>
   <path d="m155.531,485.016c-1.355-.793-8.922-.227-10.843,1.242-4.973-2.938-17.961.902-23.387,6.324-8.473,2.711-4.067,9.941 4.293,9.488l6.101,1.696c3.278.675 6.778-.227 10.844-3.278 2.375-2.597 11.524-12.875 12.992-15.472" fill="#b39c77"/>
   <path d="m153.727,485.805c-1.356-.676-8.25-.227-9.942,1.129-4.519-2.711-16.496.793-21.351,5.761-7.797,2.485-3.731,9.035 3.953,8.7 1.804.449 3.726,1.015 5.535,1.578 2.937.453 6.215-.223 9.828-3.047 2.258-2.375 10.508-11.75 11.977-14.121" fill="#b9a17b"/>
   <path d="m151.805,486.598c-1.129-.68-7.344-.227-9.039,1.015-3.953-2.375-14.797.676-19.203,5.196-7.004,2.257-3.391,8.246 3.5,7.793 1.695.566 3.39,1.015 5.085,1.468 2.711.453 5.649-.226 8.926-2.711 2.031-2.144 9.489-10.617 10.731-12.761" fill="#c0a780"/>
   <path d="m147.512,506.59c-.227,1.015-.453,1.918-.676,2.937-3.277,1.578-6.215,3.161-8.59,4.856-2.933.453-5.082-.453-6.551-2.485 0,0 15.703-4.972 15.817-5.308" fill="#473b2d"/>
   <path d="m136.102,513.027c-1.582-.339-2.485-1.808-2.258-3.273 .336-1.473 1.918-2.375 3.386-2.035 1.583.34 2.598,1.808 2.262,3.273s-1.808,2.375-3.39,2.035" fill="#9d8868"/>
   <path d="m136.102,513.027c-1.582-.339-2.485-1.808-2.258-3.273 .336-1.473 1.918-2.375 3.386-2.035 1.583.34 2.598,1.808 2.262,3.273s-1.808,2.375-3.39,2.035z" fill="none" stroke="#231f20" stroke-width=".9"/>
   <path d="m124.016,496.309c10.164-2.258 24.062-15.813 40.441-19.539 2.824.113 4.973,1.128 4.293,3.5-.453,1.355-5.648.679-5.988,2.035-10.278,3.047-12.426,9.375-18.414,11.07-4.293-.117-13.442,1.016-20.332,2.934" fill="#ba151b"/>
   <path d="m142.316,484.336c-3.05,1.129-5.988,2.262-8.925,3.391-5.536,1.355-11.411,2.597-10.055,5.308-3.84-.34-6.551.34-7.91,2.145 4.406-8.582 14.125-11.293 26.89-10.844" fill="#706049"/>
   <path d="m130.453,514.949c-4.066.563-8.359.789-12.879.114-3.277-1.469-5.082-3.844-6.215-6.782-.336-2.371.793-4.515 2.489-6.437 .336.906.675,1.808.902,2.711-1.016,5.875 6.891,11.07 10.844,4.066 1.922-2.144 3.844-1.918 5.765-.34-1.246,2.035-1.472,4.293-.906,6.668" fill="#88755a"/>
   <path d="m148.414,506.137c-3.387-1.582-5.762-3.727-5.762-7.231 3.731-4.515 13.106-9.711 22.707-13.668 2.149-.562 6.442-2.031 11.75.34 3.504,6.891-3.613,15.703-12.879,21.574-6.097,4.18-11.183,2.825-15.816-1.015" fill="#a6906e"/>
   <path d="m149.883,505.008c-3.047-1.469-5.195-3.391-5.195-6.551 3.39-4.066 11.863-8.699 20.562-12.312 1.918-.454 5.762-1.809 10.617.226 3.164,6.324-3.277,14.231-11.637,19.539-5.535,3.731-10.167,2.598-14.347-.902" fill="#ae9773"/>
   <path d="m151.352,503.879c-2.711-1.242-4.629-3.051-4.629-5.875 3.047-3.613 10.617-7.793 18.414-10.957 1.691-.449 5.195-1.695 9.488.113 2.824,5.649-2.937,12.875-10.395,17.508-4.968,3.391-9.035,2.258-12.878-.789" fill="#b59d78"/>
   <path d="m152.934,502.75c-2.485-1.133-4.18-2.715-4.18-5.199 2.711-3.16 9.379-6.887 16.269-9.711 1.582-.34 4.516-1.356 8.36.223 2.484,4.972-2.598,11.296-9.262,15.363-4.297,3.051-7.91,2.035-11.187-.676" fill="#bda47e"/>
   <path d="m154.402,501.617c-2.144-1.015-3.5-2.371-3.613-4.515 2.371-2.711 8.133-5.875 14.121-8.36 1.356-.34 3.953-1.242 7.231.113 2.144,4.293-2.262,9.829-8.02,13.329-3.73,2.597-6.781,1.808-9.719-.567" fill="#c4aa83"/>
   <path d="m155.871,500.488c-1.695-.902-2.937-2.031-2.937-3.84 1.921-2.257 6.781-4.968 11.863-7.003 1.129-.34 3.277-1.129 6.101.113 1.805,3.617-1.921,8.246-6.777,11.297-3.164,2.144-5.766,1.355-8.25-.567" fill="#ccb188"/>
   <path d="m159.602,498.004c-.907-.34-1.469-.902-1.469-1.809 .902-1.015 3.273-2.257 5.535-3.273 .562-.113 1.582-.453 2.937.113 .79,1.692-.906,3.84-3.164,5.195-1.468,1.016-2.711.676-3.839-.226" fill="#d7bb8f"/>
   <path d="m162.426,496.535h-.34c.227.68.449,1.356-.34,2.598-2.031.453-4.066,1.242-5.875,2.484 .453-1.129 1.02-2.144 1.582-3.273 1.695-.793 3.277-1.356 4.973-1.809" fill="#61523e"/>
   <path d="m147.398,506.703c-1.355-.68-3.726.789-5.082.223-5.988-1.016-7.796-.223-9.039,2.601-.566.903-1.015,1.692-1.582,2.598 2.711-.906 4.067-1.242 15.703-5.422" fill="#d8b031"/>
   <path d="m141.977,508.621c-.34,1.02-.793,2.035-1.582,3.164-1.582,1.016-3.051,1.582-4.407,1.582-1.129-.34-2.258-.793-3.386-1.355 .336-.907.789-1.809 1.242-2.711 .562-1.02 1.691-1.922 4.066-2.375 0,0 3.953,1.582 4.067,1.695" fill="#f3c537"/>
   <path d="m141.977,508.621c-.34,1.02-.793,2.035-1.582,3.164-1.582,1.016-3.051,1.582-4.407,1.582-1.129-.34-2.258-.793-3.386-1.355 .336-.907.789-1.809 1.242-2.711 .562-1.02 1.691-1.922 4.066-2.375 0,0 3.953,1.582 4.067,1.695z" fill="none" stroke="#231f20" stroke-width=".9"/>
   <path d="m140.734,509.074c-.339.68-.566,1.469-1.242,2.258-1.129.793-2.148,1.129-3.164,1.129-.793-.223-1.695-.563-2.484-.902 .336-.676.562-1.356.902-2.032 .453-.793 1.242-1.468 2.938-1.695 0,0 2.937,1.129 3.05,1.242" fill="#ddd5ee"/>
   <path d="m140.961,474.848c-3.391,1.242-6.781,2.371-8.699,3.84-11.184.906-16.946,3.617-19.883,7.117l-4.746-.676c-.453-3.504-1.129-6.328 8.246-11.297 9.605,1.016 17.738,2.484 25.082,1.016" fill="#4d4030"/>
   <path d="m250.43,249.5c8.246,22.477 24.742,47.102 45.074,72.629 7.004-.336 13.898-.676 20.902-1.129 16.266-16.605 23.723-30.383 16.832-56.141 21.805-39.644 13.895-91.265 2.825-134.867-45.641-1.469-87.778,4.289-104.84,42.809 0,6.664 1.808,13.215 5.648,19.769-8.808,8.02 5.199,64.61 13.559,56.93" fill="#978372"/>
   <path d="m250.43,249.5c8.246,22.477 24.742,47.102 45.074,72.629 7.004-.336 13.898-.676 20.902-1.129 16.266-16.605 23.723-30.383 16.832-56.141 21.805-39.644 13.895-91.265 2.825-134.867-45.641-1.469-87.778,4.289-104.84,42.809 0,6.664 1.808,13.215 5.648,19.769-8.808,8.02 5.199,64.61 13.559,56.93z" fill="none" stroke="#231f20" stroke-width=".9"/>
   <path d="m255.06 250.4c7.566 20.672 22.82 43.375 41.574 66.985 6.437-0.453 12.765-0.793 19.203-1.129 15.023-15.25 21.918-27.903 15.59-51.621 20.109-36.602 12.765-84.043 2.597-124.25-35.586-20.672-79.984 1.129-96.589 39.422 0.453 6.101 2.148 12.199 5.195 18.187-8.133 7.34 4.746 59.528 12.43 52.41" fill="#9f8a78"/>
   <path d="m259.8 251.42c6.89 18.863 20.789 39.535 37.961 61.109 5.761-0.339 11.636-0.675 17.507-1.015 13.786-14.004 19.997-25.528 14.239-47.102 18.414-33.551 11.633-76.926 2.371-113.64-25.531-39.984-72.078-1.918-88.231 36.036 0.903 5.535 2.485 11.07 4.743 16.605-7.454 6.777 4.406 54.332 11.41 48.004" fill="#a6907e"/>
   <path d="m264.44 252.32c6.328 17.055 18.867 35.805 34.343 55.348 5.309-0.227 10.621-0.567 15.93-0.902 12.426-12.653 18.187-23.157 12.992-42.7 16.606-30.273 10.504-69.582 2.145-102.9-15.477-59.191-64.282-5.082-80.098 32.645 1.469 5.082 2.938 10.05 4.406 15.023-6.777 6.098 3.957 49.25 10.282 43.488" fill="#b09986"/>
   <path d="m284.89 220.58c13.328 10.277 22.707 5.309 28.355-14.797-1.242-10.168-2.375-20.219-3.613-30.387 2.258-6.097 4.742-12.312 7.117-18.636 16.152-15.137 23.043-35.469 23.836-59.528-13.105-5.4219-25.984-6.8906-39.09-12.312-7.23 11.184-13.668 19.43-19.316 32.305-11.977 7.23-21.352 15.476-29.938 27.789 1.356 14.91 6.098 29.707 15.137 44.617 5.762 10.277 11.637 20.672 17.512 30.949" fill="#7b6a5c"/>
   <path d="m284.89 220.58c13.328 10.277 22.707 5.309 28.355-14.797-1.242-10.168-2.375-20.219-3.613-30.387 2.258-6.097 4.742-12.312 7.117-18.636 16.152-15.137 23.043-35.469 23.836-59.528-13.105-5.4219-25.984-6.8906-39.09-12.312-7.23 11.184-13.668 19.43-19.316 32.305-11.977 7.23-21.352 15.476-29.938 27.789 1.356 14.91 6.098 29.707 15.137 44.617 5.762 10.277 11.637 20.672 17.512 30.949z" fill="none" stroke="#231f20" stroke-width=".9"/>
   <path d="m285.9 220.58c12.09 10.277 20.899 5.309 26.434-14.797-1.016-10.168-2.031-20.219-3.047-30.387 2.258-6.097 4.516-12.312 6.891-18.636 15.023-15.137 21.691-35.469 22.707-59.528-12.09-5.4219-23.949-6.8906-36.039-12.312-6.778 11.184-12.879 19.43-18.301 32.305-11.184 7.23-19.883 15.476-28.016 27.789 1.129 14.91 5.309 29.707 13.442 44.617 5.308 10.277 10.621 20.672 15.929 30.949" fill="#857264"/>
   <path d="m286.81 220.58c11.07 10.277 19.316 5.309 24.511-14.797-0.789-10.168-1.582-20.219-2.371-30.387 2.145-6.097 4.293-12.312 6.551-18.636 14.121-15.137 20.449-35.469 21.691-59.528-11.07-5.4219-22.027-6.8906-32.988-12.312-6.437 11.184-12.086 19.43-17.172 32.305-10.504 7.23-18.64 15.476-26.32 27.789 0.902 14.91 4.519 29.707 11.859 44.617 4.746 10.277 9.493 20.672 14.239 30.949" fill="#8e7b6b"/>
   <path d="m287.82 220.58c9.942 10.277 17.508 5.309 22.594-14.797-0.566-10.168-1.242-20.219-1.809-30.387 2.036-6.097 4.18-12.312 6.329-18.636 12.992-15.137 19.089-35.469 20.558-59.528-9.941-5.4219-19.996-6.8906-30.051-12.312-5.984 11.184-11.297 19.43-16.039 32.305-9.605 7.23-17.285 15.476-24.402 27.789 0.562 14.91 3.726 29.707 10.168 44.617 4.293 10.277 8.473 20.672 12.652 30.949" fill="#978372"/>
   <path d="m288.051,217.871c9.601,7.457 16.492,3.84 20.672-10.844-.903-7.343-1.809-14.797-2.711-22.14 1.695-4.516 7.793-28.914 9.488-33.434 11.75-11.183 22.484-28.012 23.047-45.637-7.344.34-20.109,6.102-31.293-1.128-5.309,8.132-9.941,14.121-14.121,23.496-8.699,5.308-15.59,11.296-21.918,20.332-6.098,7.23-6.891,33.773 3.957,46.765 4.293,7.453 8.582,15.024 12.879,22.59" fill="#b09986"/>
   <path d="m283.75 25.617c5.539 1.3594 6.781-2.7109 6.441-6.4375 0-2.9375-4.179-5.082-8.472-4.6328s-6.778 3.2773-6.778 6.1015c0.676 2.2579 5.196 4.7461 8.809 4.9688" fill="#61574e"/>
   <path d="m283.75 25.617c5.539 1.3594 6.781-2.7109 6.441-6.4375 0-2.9375-4.179-5.082-8.472-4.6328s-6.778 3.2773-6.778 6.1015c0.676 2.2579 5.196 4.7461 8.809 4.9688z" fill="none" stroke="#231f20" stroke-width=".9"/>
   <path d="m273.25,14.4375c-.789,2.0313 0,3.9531 2.484,5.6445 4.86-.4492 7.118-2.1445 6.891-4.8554-1.469-2.4844-4.516-2.711-9.375-.7891" fill="#918f90"/>
   <path d="m273.25,14.4375c-.789,2.0313 0,3.9531 2.484,5.6445 4.86-.4492 7.118-2.1445 6.891-4.8554-1.469-2.4844-4.516-2.711-9.375-.7891z" fill="none" stroke="#231f20" stroke-width=".9"/>
   <path d="m329.62 30.59c0.906-1.3554 1.695-2.5976 2.602-3.9531 0.675-5.3086 0-9.6015-3.051-15.023-4.067-2.375-11.75-5.1953-19.543-6.1016-9.606 3.1641-19.207 6.2149-28.695 9.2617 1.129 3.2774 2.257 6.6641 3.273 9.9414 3.504 1.0157 7.004 2.0352 10.508 3.0508 11.637 0.9024 23.273 1.918 34.906 2.8242" fill="#61574e"/>
   <path d="m329.62 30.59c0.906-1.3554 1.695-2.5976 2.602-3.9531 0.675-5.3086 0-9.6015-3.051-15.023-4.067-2.375-11.75-5.1953-19.543-6.1016-9.606 3.1641-19.207 6.2149-28.695 9.2617 1.129 3.2774 2.257 6.6641 3.273 9.9414 3.504 1.0157 7.004 2.0352 10.508 3.0508 11.637 0.9024 23.273 1.918 34.906 2.8242z" fill="none" stroke="#231f20" stroke-width=".9"/>
   <path d="m327.59,30.25c.789-1.2422 1.469-2.3711 2.258-3.6133 .679-4.8594 0-8.8125-2.711-13.6679-3.727-2.2618-10.731-4.74614-17.848-5.64849-8.812,2.82419-17.512,5.64849-26.324,8.47269-.227,3.0468.789,5.9843 3.164,9.0351 3.164.9024 6.328,1.9219 9.488,2.8242 10.621.9024 21.352,1.6954 31.973,2.5977" fill="#71655a"/>
   <path d="m325.44 29.91c0.793-1.1289 1.469-2.2579 2.149-3.2735 0.676-4.5195 0-8.0195-2.485-12.426-3.39-2.0351-9.718-4.2929-16.156-5.082-7.906 2.4844-15.929 5.082-23.836 7.6797-1.582 2.7109-0.679 5.4219 2.825 8.1328 2.824 0.9024 5.761 1.6953 8.585 2.5977 9.715 0.789 19.317 1.582 28.918 2.3711" fill="#827365"/>
   <path d="m323.41 29.461c0.676-0.9062 1.242-1.9218 1.918-2.9375 0.567-3.9531 0-7.1171-2.258-11.07-3.05-1.8086-8.699-3.8398-14.461-4.5195-7.117 2.2617-14.234 4.5195-21.351 6.8906-2.938 2.3711-2.145 4.8594 2.484 7.2305l7.797 2.3711 25.871 2.0351" fill="#978372"/>
   <path d="m284.55 21.551c6.101 1.3555 7.457-3.0469 7.004-7.1133 0-3.1641-4.52-5.5352-9.266-5.0859-4.742 0.56641-7.453 3.6172-7.453 6.7773 0.789 2.375 5.762 5.1992 9.715 5.4219" fill="#827365"/>
   <path d="m284.55 21.551c6.101 1.3555 7.457-3.0469 7.004-7.1133 0-3.1641-4.52-5.5352-9.266-5.0859-4.742 0.56641-7.453 3.6172-7.453 6.7773 0.789 2.375 5.762 5.1992 9.715 5.4219z" fill="none" stroke="#231f20" stroke-width=".9"/>
   <path d="m284.094,19.293c3.617.789 4.406-1.8086 4.179-4.293 0-1.918-2.71-3.2734-5.535-2.9375-2.824.2266-4.406,2.0352-4.406,3.9531 .453,1.4688 3.391,3.1641 5.762,3.2774" fill="#827365"/>
   <path d="m284.094,19.293c3.617.789 4.406-1.8086 4.179-4.293 0-1.918-2.71-3.2734-5.535-2.9375-2.824.2266-4.406,2.0352-4.406,3.9531 .453,1.4688 3.391,3.1641 5.762,3.2774z" fill="none" stroke="#827365" stroke-width=".9"/>
   <path d="m273.02 9.2383c-0.902 2.2617 0 4.4062 2.711 6.2148 5.313-0.5664 7.797-2.3711 7.571-5.3086-1.582-2.7109-4.973-3.0508-10.282-0.90622" fill="#abaaaa"/>
   <path d="m273.02 9.2383c-0.902 2.2617 0 4.4062 2.711 6.2148 5.313-0.5664 7.797-2.3711 7.571-5.3086-1.582-2.7109-4.973-3.0508-10.282-0.90622z" fill="none" stroke="#231f20" stroke-width=".9"/>
   <path d="m274.94 10.031c-0.566 1.4687 0 2.7109 1.696 3.8398 3.16-0.4531 4.629-1.4688 4.515-3.2773-1.015-1.6915-3.047-1.8047-6.211-0.5625" fill="#c8c7c7"/>
   <path d="m274.94 10.031c-0.566 1.4687 0 2.7109 1.696 3.8398 3.16-0.4531 4.629-1.4688 4.515-3.2773-1.015-1.6915-3.047-1.8047-6.211-0.5625z" fill="none" stroke="#c8c7c7" stroke-width=".9"/>
   <path d="m290.2 17.371c4.973 2.0352 8.02-2.4844 7.571-6.6641 0-3.1601-3.731-5.9843-7.571-5.9843s-7.004 2.5976-7.004 5.7617 3.164 6.8867 7.004 6.8867" fill="#827365"/>
   <path d="m290.2 17.371c4.973 2.0352 8.02-2.4844 7.571-6.6641 0-3.1601-3.731-5.9843-7.571-5.9843s-7.004 2.5976-7.004 5.7617 3.164 6.8867 7.004 6.8867z" fill="none" stroke="#231f20" stroke-width=".9"/>
   <path d="m290.31 15.793c3.504 1.4648 5.648-1.8086 5.308-4.6328 0-2.2579-2.597-4.293-5.308-4.293s-4.86 1.8086-4.86 4.0664 2.149 4.8594 4.86 4.8594" fill="#9d8877"/>
   <path d="m290.31 15.793c3.504 1.4648 5.648-1.8086 5.308-4.6328 0-2.2579-2.597-4.293-5.308-4.293s-4.86 1.8086-4.86 4.0664 2.149 4.8594 4.86 4.8594z" fill="none" stroke="#9d8877" stroke-width=".9"/>
   <path d="m282.62 3.5938c-0.789 2.1445 0 4.2891 2.148 6.4376 4.407 0 6.438-1.4688 6.211-4.5196-1.242-2.9375-4.066-3.6133-8.359-1.918" fill="#c8c7c7"/>
   <path d="m282.62 3.5938c-0.789 2.1445 0 4.2891 2.148 6.4376 4.407 0 6.438-1.4688 6.211-4.5196-1.242-2.9375-4.066-3.6133-8.359-1.918z" fill="none" stroke="#231f20" stroke-width=".9"/>
   <path d="m284.43 4.7227c-0.454 1.1289 0 2.2578 1.129 3.5 2.375 0 3.503-0.90235 3.39-2.4844-0.68-1.582-2.262-1.918-4.519-1.0156" fill="#d5d4d5"/>
   <path d="m284.43 4.7227c-0.454 1.1289 0 2.2578 1.129 3.5 2.375 0 3.503-0.90235 3.39-2.4844-0.68-1.582-2.262-1.918-4.519-1.0156z" fill="none" stroke="#d5d4d5" stroke-width=".9"/>
   <path d="m301.72 15.68c3.953 0 7.117-2.5977 7.117-5.7617s-3.164-5.7617-7.117-5.7617c-3.84 0-7.004 2.5977-7.004 5.7617s3.164 5.7617 7.004 5.7617" fill="#978372"/>
   <path d="m301.72 15.68c3.953 0 7.117-2.5977 7.117-5.7617s-3.164-5.7617-7.117-5.7617c-3.84 0-7.004 2.5977-7.004 5.7617s3.164 5.7617 7.004 5.7617z" fill="none" stroke="#231f20" stroke-width=".9"/>
   <path d="m301.72 13.984c2.711 0 4.972-1.8086 4.972-4.0664s-2.261-4.0664-4.972-4.0664-4.973 1.8086-4.973 4.0664 2.262 4.0664 4.973 4.0664" fill="#9d8877"/>
   <path d="m301.72 13.984c2.711 0 4.972-1.8086 4.972-4.0664s-2.261-4.0664-4.972-4.0664-4.973 1.8086-4.973 4.0664 2.262 4.0664 4.973 4.0664z" fill="none" stroke="#9d8877" stroke-width=".9"/>
   <path d="m294.15 3.0273c-0.789 2.1445 0 4.293 2.262 6.4375 4.293 0 6.324-1.4688 6.211-4.5156-1.355-2.9375-4.18-3.6172-8.473-1.9219" fill="#c8c7c7"/>
   <path d="m294.15 3.0273c-0.789 2.1445 0 4.293 2.262 6.4375 4.293 0 6.324-1.4688 6.211-4.5156-1.355-2.9375-4.18-3.6172-8.473-1.9219z" fill="none" stroke="#231f20" stroke-width=".9"/>
   <path d="m296.41,4.38281c-.34.90235 0,1.8086.903,2.82422 1.921,0 2.824-.67969 2.71-2.03515-.562-1.24219-1.808-1.46485-3.613-.78907" fill="#e2e2e2"/>
   <path d="m296.41,4.38281c-.34.90235 0,1.8086.903,2.82422 1.921,0 2.824-.67969 2.71-2.03515-.562-1.24219-1.808-1.46485-3.613-.78907z" fill="none" stroke="#e2e2e2" stroke-width=".9"/>
   <path d="m113.508,43.4648c6.324,1.2422 6.664-2.5976 5.195-6.0976-.789-2.7109-5.762-4.7461-10.281-4.293-4.516.3399-6.438,2.9375-5.762,5.7617 1.356,2.0313 6.895,4.4024 10.848,4.6289" fill="#61574e"/>
   <path d="m113.508,43.4648c6.324,1.2422 6.664-2.5976 5.195-6.0976-.789-2.7109-5.762-4.7461-10.281-4.293-4.516.3399-6.438,2.9375-5.762,5.7617 1.356,2.0313 6.895,4.4024 10.848,4.6289z" fill="none" stroke="#231f20" stroke-width=".9"/>
   <path d="m99.273 32.961c-0.3398 1.9219 1.0156 3.7266 4.1796 5.3086 5.082-0.5664 7.117-2.0312 6.102-4.6328-2.149-2.3711-5.649-2.5937-10.282-0.6758" fill="#848182"/>
   <path d="m99.273 32.961c-0.3398 1.9219 1.0156 3.7266 4.1796 5.3086 5.082-0.5664 7.117-2.0312 6.102-4.6328-2.149-2.3711-5.649-2.5937-10.282-0.6758z" fill="none" stroke="#231f20" stroke-width=".9"/>
   <path d="m158.469,41.8828c.566-1.1289 1.133-2.3711 1.695-3.6133 .227-5.082 1.922-3.9531-3.613-9.0351-4.973-2.2578-11.75-3.8399-20.449-4.7461l-28.469,8.8125c2.035,3.0508 4.066,6.2109 6.215,9.2617 4.293.4531 7.34,2.7109 10.843,4.6289 12.766,2.2617 21.012-2.9336 33.778-5.3086" fill="#61574e"/>
   <path d="m158.469,41.8828c.566-1.1289 1.133-2.3711 1.695-3.6133 .227-5.082 1.922-3.9531-3.613-9.0351-4.973-2.2578-11.75-3.8399-20.449-4.7461l-28.469,8.8125c2.035,3.0508 4.066,6.2109 6.215,9.2617 4.293.4531 7.34,2.7109 10.843,4.6289 12.766,2.2617 21.012-2.9336 33.778-5.3086z" fill="none" stroke="#231f20" stroke-width=".9"/>
   <path d="m156.777,42.1094c.563-1.1289 1.016-2.3711 1.578-3.5 .227-4.7461 1.696-3.6133-3.386-8.3594-4.633-2.1445-11.071-3.6133-19.207-4.5195-8.809,2.8242-17.735,5.5351-26.66,8.2461 1.921,2.9375 3.839,5.7617 5.761,8.6992 4.067.3398 6.891,2.4844 10.168,4.293 11.973,2.2578 19.77-2.711 31.746-4.8594" fill="#645b51"/>
   <path d="m155.082,42.2227c.449-1.0157.902-2.1446 1.469-3.1602 .226-4.4062 1.582-3.5039-3.164-7.9102-4.407-1.9179-10.282-3.3867-17.852-4.1757-8.359,2.5937-16.719,5.1953-24.965,7.6797l5.422,8.1328c3.731.3359 6.442,2.3711 9.492,4.0664 11.184,2.0312 18.414-2.5977 29.598-4.6328" fill="#696056"/>
   <path d="m153.273,42.4492c.454-1.0156 1.016-2.0351 1.469-3.0508 .113-4.0664 1.469-3.1601-2.937-7.2265-4.067-1.9219-9.602-3.1641-16.606-3.8438-7.797,2.375-15.476,4.7461-23.16,7.0039 1.695,2.5977 3.387,5.0821 5.082,7.5703 3.504.336 5.875,2.2579 8.699,3.7266 10.395,1.918 17.059-2.3711 27.453-4.1797" fill="#6e655a"/>
   <path d="m145.93,40.8672c.226-.5625.566-1.2422.793-1.8047 .113-2.5977 1.015-1.9219-1.696-4.5195-2.488-1.1289-5.988-1.9219-10.281-2.3711-4.746,1.4648-9.488,2.9336-14.234,4.4023 1.015,1.5821 2.035,3.0508 3.164,4.6328 2.144.2266 3.613,1.3555 5.308,2.2578 6.438,1.2422 10.508-1.4687 16.946-2.5976" fill="#807569"/>
   <path d="m145.93,40.8672c.226-.5625.566-1.2422.793-1.8047 .113-2.5977 1.015-1.9219-1.696-4.5195-2.488-1.1289-5.988-1.9219-10.281-2.3711-4.746,1.4648-9.488,2.9336-14.234,4.4023 1.015,1.5821 2.035,3.0508 3.164,4.6328 2.144.2266 3.613,1.3555 5.308,2.2578 6.438,1.2422 10.508-1.4687 16.946-2.5976z" fill="none" stroke="#807569" stroke-width=".9"/>
   <path d="m113.281,39.625c6.891,1.2422 7.231-2.8242 5.649-6.6641-.789-3.0507-6.328-5.3086-11.184-4.8554-4.969.5625-7.117,3.3867-6.328,6.4375 1.469,2.2578 7.57,4.8554 11.863,5.082" fill="#61574e"/>
   <path d="m113.281,39.625c6.891,1.2422 7.231-2.8242 5.649-6.6641-.789-3.0507-6.328-5.3086-11.184-4.8554-4.969.5625-7.117,3.3867-6.328,6.4375 1.469,2.2578 7.57,4.8554 11.863,5.082z" fill="none" stroke="#231f20" stroke-width=".9"/>
   <path d="m110.457,38.2695c4.293.793 4.52-1.6953 3.5-4.0664-.449-1.9179-3.84-3.2773-6.891-2.9375-3.05.2266-4.406,2.0352-3.953,3.8399 .903,1.4687 4.746,3.0508 7.344,3.164" fill="#6e655a"/>
   <path d="m110.457,38.2695c4.293.793 4.52-1.6953 3.5-4.0664-.449-1.9179-3.84-3.2773-6.891-2.9375-3.05.2266-4.406,2.0352-3.953,3.8399 .903,1.4687 4.746,3.0508 7.344,3.164z" fill="none" stroke="#6e655a" stroke-width=".9"/>
   <path d="m97.691 28.106c-0.3398 2.0312 1.1289 4.0664 4.6326 5.7578 5.422-0.5625 7.68-2.2578 6.664-4.9688-2.484-2.5976-6.211-2.9375-11.297-0.789" fill="#9e9c9d"/>
   <path d="m97.691 28.106c-0.3398 2.0312 1.1289 4.0664 4.6326 5.7578 5.422-0.5625 7.68-2.2578 6.664-4.9688-2.484-2.5976-6.211-2.9375-11.297-0.789z" fill="none" stroke="#231f20" stroke-width=".9"/>
   <path d="m98.2578,29.2344c-.2265,1.4687.7891,2.8242 3.1602,3.9531 3.844-.3398 5.422-1.4687 4.633-3.3906-1.696-1.8047-4.293-2.0313-7.7932-.5625" fill="#abaaaa"/>
   <path d="m98.2578,29.2344c-.2265,1.4687.7891,2.8242 3.1602,3.9531 3.844-.3398 5.422-1.4687 4.633-3.3906-1.696-1.8047-4.293-2.0313-7.7932-.5625z" fill="none" stroke="#abaaaa" stroke-width=".9"/>
   <path d="m118.25 35.672c5.984 1.9219 8.019-2.3711 6.437-6.211-0.789-3.0507-5.535-5.7617-9.714-5.7617s-6.891 2.4844-6.102 5.4219c0.793 3.0508 5.195 6.5508 9.379 6.5508" fill="#61574e"/>
   <path d="m118.25 35.672c5.984 1.9219 8.019-2.3711 6.437-6.211-0.789-3.0507-5.535-5.7617-9.714-5.7617s-6.891 2.4844-6.102 5.4219c0.793 3.0508 5.195 6.5508 9.379 6.5508z" fill="none" stroke="#231f20" stroke-width=".9"/>
   <path d="m117.8 33.414c3.164 1.0156 4.293-1.3555 3.5-3.3907-0.449-1.6953-3.047-3.164-5.309-3.164s-3.726 1.3554-3.277 2.9375c0.453 1.6953 2.828 3.6172 5.086 3.6172" fill="#6e655a"/>
   <path d="m117.8 33.414c3.164 1.0156 4.293-1.3555 3.5-3.3907-0.449-1.6953-3.047-3.164-5.309-3.164s-3.726 1.3554-3.277 2.9375c0.453 1.6953 2.828 3.6172 5.086 3.6172z" fill="none" stroke="#6e655a" stroke-width=".9"/>
   <path d="m106.5 22.684c-0.227 2.0312 1.129 4.0664 4.066 6.0977 4.633 0 6.551-1.4688 5.535-4.293-2.148-2.711-5.421-3.3867-9.601-1.8047" fill="#9e9c9d"/>
   <path d="m106.5 22.684c-0.227 2.0312 1.129 4.0664 4.066 6.0977 4.633 0 6.551-1.4688 5.535-4.293-2.148-2.711-5.421-3.3867-9.601-1.8047z" fill="none" stroke="#231f20" stroke-width=".9"/>
   <path d="m108.648,24.0391c-.226,1.4648.793,2.8203 2.825,4.289 3.164,0 4.406-1.0156 3.73-2.9336-1.469-1.9218-3.617-2.375-6.555-1.3554" fill="#abaaaa"/>
   <path d="m108.648,24.0391c-.226,1.4648.793,2.8203 2.825,4.289 3.164,0 4.406-1.0156 3.73-2.9336-1.469-1.9218-3.617-2.375-6.555-1.3554z" fill="none" stroke="#abaaaa" stroke-width=".9"/>
   <path d="m130.34 34.09c4.18 0 6.89-2.4843 5.988-5.4218-0.793-3.0508-4.859-5.5352-9.039-5.5352s-6.891 2.4844-6.101 5.5352c0.792 2.9375 4.972 5.4218 9.152 5.4218" fill="#61574e"/>
   <path d="m130.34 34.09c4.18 0 6.89-2.4843 5.988-5.4218-0.793-3.0508-4.859-5.5352-9.039-5.5352s-6.891 2.4844-6.101 5.5352c0.792 2.9375 4.972 5.4218 9.152 5.4218z" fill="none" stroke="#231f20" stroke-width=".9"/>
   <path d="m129.77 32.172c2.715 0 4.52-1.5821 3.957-3.5039-0.453-2.0313-3.164-3.6133-5.988-3.6133-2.711 0-4.519 1.582-3.953 3.6133 0.563 1.9218 3.274 3.5039 5.984 3.5039" fill="#6e655a"/>
   <path d="m129.77 32.172c2.715 0 4.52-1.5821 3.957-3.5039-0.453-2.0313-3.164-3.6133-5.988-3.6133-2.711 0-4.519 1.582-3.953 3.6133 0.563 1.9218 3.274 3.5039 5.984 3.5039z" fill="none" stroke="#6e655a" stroke-width=".9"/>
   <path d="m118.82 22.117c-0.339 2.0312 1.129 4.0664 4.067 6.0976 4.633 0 6.555-1.4648 5.535-4.289-2.145-2.711-5.422-3.2774-9.602-1.8086" fill="#9e9c9d"/>
   <path d="m118.82 22.117c-0.339 2.0312 1.129 4.0664 4.067 6.0976 4.633 0 6.555-1.4648 5.535-4.289-2.145-2.711-5.422-3.2774-9.602-1.8086z" fill="none" stroke="#231f20" stroke-width=".9"/>
   <path d="m119.945,23.6992c-.222,1.3555.793,2.8242 2.825,4.1797 3.277,0 4.519-.9023 3.843-2.9375-1.582-1.8086-3.73-2.2578-6.668-1.2422" fill="#abaaaa"/>
   <path d="m119.945,23.6992c-.222,1.3555.793,2.8242 2.825,4.1797 3.277,0 4.519-.9023 3.843-2.9375-1.582-1.8086-3.73-2.2578-6.668-1.2422z" fill="none" stroke="#abaaaa" stroke-width=".9"/>
   <path d="m426.22 151.34c-0.793 3.953-1.469 7.906-2.262 11.859-10.617 30.16-15.476 62.578-7.566 100.08 1.691 14.231-1.36 34.903 0.222 49.133-39.425 23.383 12.204 122.78 47.336 127.53 46.66 5.871 69.93-86.75 74.223-120.75 30.504-34.336 20.336-80.308-35.922-140.06-3.504-11.07-7.344-22.367-11.527-33.664-31.969-32.305-48.461-14.004-64.504 5.875" fill="#857264"/>
   <path d="m426.22 151.34c-0.793 3.953-1.469 7.906-2.262 11.859-10.617 30.16-15.476 62.578-7.566 100.08 1.691 14.231-1.36 34.903 0.222 49.133-39.425 23.383 12.204 122.78 47.336 127.53 46.66 5.871 69.93-86.75 74.223-120.75 30.504-34.336 20.336-80.308-35.922-140.06-3.504-11.07-7.344-22.367-11.527-33.664-31.969-32.305-48.461-14.004-64.504 5.875z" fill="none" stroke="#231f20" stroke-width=".9"/>
   <path d="m429.72 151.11c-0.676 3.953-1.356 7.793-2.031 11.746-9.942 29.938-14.461 62.243-7.004 99.516 1.468 14.008-1.356 34.566 0.222 48.797-36.601 23.273 11.188 122 43.723 126.62 43.156 5.875 64.734-86.184 68.688-119.85 28.242-34.222 18.75-79.859-33.215-139.27-3.278-11.071-6.891-22.141-10.735-33.438-29.484-32.078-44.734-13.89-59.648 5.875" fill="#8a7768"/>
   <path d="m433.22 150.89c-0.68 3.84-1.242 7.797-1.922 11.75-9.039 29.707-13.219 61.672-6.438 98.722 1.356 14.008-1.129 34.454 0.227 48.571-33.555 23.043 10.277 121.09 40.215 125.84 39.652 5.761 59.426-85.735 63.152-119.17 25.871-33.996 17.172-79.293-30.613-138.37-2.938-10.957-6.215-22.028-9.719-33.207-27.226-31.856-41.234-13.782-54.902 5.871" fill="#927e6e"/>
   <path d="m436.72 150.55c-0.563 3.953-1.129 7.793-1.692 11.746-8.363 29.48-12.089 61.336-5.875 98.16 1.243 13.891-1.132 34.113 0.114 48.117-30.618 22.93 9.488 120.41 36.714 125.04 36.149 5.762 54.227-85.054 57.5-118.38 23.727-33.773 15.817-78.843-27.789-137.36-2.824-10.953-5.761-21.91-8.925-33.094-24.852-31.629-37.618-13.668-50.047 5.762" fill="#998574"/>
   <path d="m484.4 161.73c4.406 7.907 8.925 15.817 13.445 23.723 5.535 4.067 11.07 8.02 16.719 12.086-7.231-3.273-14.461-6.437-21.692-9.601-9.941-7.68-16.719-16.379-20.898-25.868l12.426-0.34" fill="#78675a"/>
   <path d="m455.59 165.68c2.711 5.761 5.535 11.41 8.246 17.058 50.613 20.559 56.938 31.516 72.981 129.11-16.833 28.125-38.071 46.312-75.918 45.296-12.653-15.136-16.379-32.984-19.883-53.656-27.903-7.566-20.559-102.23-10.617-138.48 6.89-30.16 15.363-30.047 25.191 0.676" fill="#a48f7d"/>
   <path d="m456.94 171.1c2.485 5.313 5.086 10.622 7.571 15.93 47.336 19.09 53.211 29.367 68.121 120.41-15.59 26.207-35.473 43.149-70.719 42.246-11.863-14.117-15.254-30.722-18.527-50.039-26.211-7.004-19.207-95.336-9.942-129.11 6.325-28.238 14.235-28.016 23.496 0.562" fill="#a6907e"/>
   <path d="m458.18 176.53c2.375 4.973 4.746 9.828 7.117 14.801 43.836 17.735 49.371 27.223 63.265 111.71-14.574 24.399-32.988 40.102-65.75 39.199-11.07-13.105-14.121-28.465-17.171-46.425-24.29-6.442-17.848-88.446-9.262-119.85 5.984-26.207 13.215-25.981 21.801 0.562" fill="#aa9481"/>
   <path d="m459.54 181.95c2.149 4.52 4.293 9.153 6.441 13.668 40.555 16.379 45.641 25.192 58.407 103.02-13.446 22.476-30.391 36.937-60.664 36.258-10.168-12.2-12.993-26.43-15.817-42.922-22.371-5.989-16.383-81.559-8.472-110.47 5.421-24.172 12.086-24.062 20.105 0.449" fill="#ac9583"/>
   <path d="m460.78 187.37c2.031 4.18 3.953 8.359 5.985 12.539 37.054 14.91 41.687 23.043 53.437 94.32-12.312 20.672-27.902 33.887-55.582 33.208-9.379-11.067-11.977-24.172-14.461-39.309-20.449-5.422-15.023-74.664-7.797-101.21 5.086-22.141 11.074-22.027 18.418 0.449" fill="#b09986"/>
   <path d="m443.27 104.35c4.293-12.54 7.907-23.95 14.684-35.922 2.938-8.2461 2.938-17.621 5.988-25.867 10.957 1.1289 25.082 3.3867 36.039 4.5195 3.727 10.73 6.329 21.008 1.696 28.688 0.113 17.848-2.371 33.324-5.989 47.672-1.582 19.2-7.003 29.707-12.992 38.969-8.133 0.676-16.265 1.356-24.402 2.031-14.348-13.554-16.379-35.582-15.024-60.089" fill="#5c4e43"/>
   <path d="m443.27 104.35c4.293-12.54 7.907-23.95 14.684-35.922 2.938-8.2461 2.938-17.621 5.988-25.867 10.957 1.1289 25.082 3.3867 36.039 4.5195 3.727 10.73 6.329 21.008 1.696 28.688 0.113 17.848-2.371 33.324-5.989 47.672-1.582 19.2-7.003 29.707-12.992 38.969-8.133 0.676-16.265 1.356-24.402 2.031-14.348-13.554-16.379-35.582-15.024-60.089z" fill="none" stroke="#231f20" stroke-width=".9"/>
   <path d="m447.91 104.35c3.84-12.54 7.231-23.95 13.328-35.922 2.711-8.2461 2.825-17.621 5.536-25.867 9.601 1.1289 21.918 3.3867 31.519 4.5195 3.051 10.73 5.086 21.008 1.02 28.688-0.118 17.848-2.489 33.324-5.762 47.672-1.695 19.2-6.555 29.707-11.977 38.969-7.117 0.676-14.234 1.356-21.351 2.031-12.203-13.554-13.781-35.582-12.313-60.089" fill="#6d5d51"/>
   <path d="m452.54 104.35c3.617-12.54 6.668-23.95 12.09-35.922 2.371-8.2461 2.598-17.621 5.082-25.867 8.137 1.1289 18.641 3.3867 26.777 4.5195 2.371 10.73 4.067 21.008 0.563 28.688-0.453 17.848-2.711 33.324-5.762 47.672-1.695 19.2-6.101 29.707-10.73 38.969-6.102 0.676-12.203 1.356-18.301 2.031-10.395-13.554-11.188-35.582-9.719-60.089" fill="#7d6c5e"/>
   <path d="m457.28 104.35c3.164-12.54 5.989-23.95 10.617-35.922 2.149-8.2461 2.489-17.621 4.633-25.867 6.782 1.1289 15.367 3.3867 22.145 4.5195 1.808 10.73 3.047 21.008 0 28.688-0.68 17.848-2.824 33.324-5.649 47.672-1.695 19.2-5.535 29.707-9.605 38.969-4.969 0.676-10.055 1.356-15.137 2.031-8.359-13.554-8.812-35.582-7.004-60.089" fill="#8e7b6b"/>
   <path d="m457.51 84.695c1.469 1.0156 3.5 0.2266 5.875-2.5976 8.472-10.055 14.121-21.574 13.668-35.922 5.195-1.2422 10.054 0.5664 14.914 1.3555 5.422 9.2656 5.875 16.039 5.308 23.836 4.973-1.1289 7.344-5.3086 7.118-12.652-0.227-11.184-6.891-17.621-12.879-23.383-15.477-6.4375-21.578 0.2266-36.039-4.4062-3.274 0-6.438 6.5547-3.164 12.312 10.621 5.7617 8.699 22.027 5.199 41.457" fill="#998574"/>
   <path d="m430.734,155.18c-2.035-16.606 3.5-32.192 10.168-47.782 6.664-6.437 12.875-10.8433 16.039-1.918 .227,13.102.114,26.09-3.726,37.614-5.988,6.437-13.106,11.07-22.481,12.086" fill="#8e7b6b"/>
   <path d="m433.1 152.24c-1.695-13.894 3.051-27.222 8.586-40.324 5.649-5.422 10.844-9.148 13.555-1.582 0.227 11.07 0 21.914-3.16 31.742-5.086 5.422-11.074 9.375-18.981 10.164" fill="#998574"/>
   <path d="m435.477,149.418c-1.356-11.406 2.488-22.25 7.003-32.98 4.633-4.407 8.813-7.458 10.961-1.243 .227,8.922.114,17.844-2.375,25.868-4.179,4.402-9.148,7.566-15.589,8.355" fill="#a48f7d"/>
   <path d="m437.965,146.484c-1.133-8.812 1.805-17.171 5.308-25.418 3.614-3.5 6.891-5.871 8.473-1.128 .227,7.003.113,13.894-1.808,20.105-3.278,3.391-7.118,5.875-11.973,6.441" fill="#b29a87"/>
   <path d="m137.68 512.35c1.242 0 2.371-1.02 2.371-2.262s-1.129-2.371-2.371-2.371c-1.356 0-2.371 1.129-2.371 2.371s1.015 2.262 2.371 2.262" fill="#231f20"/>
   <path d="m137.68 512.35c1.242 0 2.371-1.02 2.371-2.262s-1.129-2.371-2.371-2.371c-1.356 0-2.371 1.129-2.371 2.371s1.015 2.262 2.371 2.262z" fill="none" stroke="#231f20" stroke-width=".9"/>
   <path d="m136.328,512.125c.34,0 .563-.227.563-.566s-.223-.567-.563-.567-.566.227-.566.567 .226.566.566.566" fill="#f0fafe"/>
   <path d="m136.328,512.125c.34,0 .563-.227.563-.566s-.223-.567-.563-.567-.566.227-.566.567 .226.566.566.566z" fill="none" stroke="#f0fafe" stroke-width=".9"/>
   <path d="m123.9 498.46 1.692-2.711-3.047-0.793s1.242 3.617 1.355 3.504" fill="#ba151b"/>
   <path d="m136.555,517.883c2.371-2.82 7.793-6.098 11.297-7.567 4.066-.226 6.55.567 6.777,2.598 2.598-1.355 5.195-1.922 7.57-1.582-.453,2.148-2.375,4.52-3.844,6.664-16.378,9.375-34.226,7.117-21.8-.113" fill="#a6906e"/>
   <path d="m138.137,517.773c2.144-2.488 7.004-5.421 10.168-6.781 3.613-.222 5.871.567 6.097,2.375 2.262-1.242 4.633-1.695 6.782-1.355-.34,1.918-2.149,3.953-3.391,5.871-14.801,8.586-30.953,6.441-19.656-.11" fill="#aa9371"/>
   <path d="m139.605,517.773c1.918-2.261 6.211-4.859 9.036-5.988 3.277-.226 5.308.34 5.422,2.031 2.148-1.128 4.183-1.578 6.101-1.242-.34,1.696-1.918,3.617-3.051,5.309-13.105,7.57-27.562,5.762-17.508-.11" fill="#b09875"/>
   <path d="m141.184,517.773c1.695-2.035 5.425-4.293 7.91-5.312 2.824-.223 4.633.34 4.746,1.809 1.805-1.016 3.726-1.356 5.422-1.016-.34,1.469-1.696,3.051-2.711,4.519-11.637,6.665-24.176,5.082-15.367,0" fill="#b59d78"/>
   <path d="m105.82 500.72c-27.453-7.906-59.988-22.367-78.062-60.656-26.434-42.36-15.93-79.071-11.523-115.67 2.7109 71.613 16.156 153.05 88.231 160.4 0.453 5.309 0.902 10.617 1.355 15.926" fill="#5a4c42"/>
   <path d="m91.703 254.24c-48.805 38.746-56.824 77.488-46.883 116.35-4.1797-57.61 34.91-110.7 80.211-129.79-11.183 4.519-22.254 9.039-33.328 13.441" fill="#55473e"/>
   <path d="m347.13 375.56c-7.117 4.293-14.235 8.472-21.352 12.765 27.227-37.953 36.715-78.957 41.235-120.64 0 35.921-4.743 71.957-19.883 107.88" fill="#927e6e"/>
   <path d="m327.59 352.86c-7.231 4.18-14.574 8.473-21.918 12.762 29.148-37.953 40.558-78.957 47.109-120.52-1.695 35.808-8.246 71.726-25.191 107.76" fill="#927e6e"/>
   <path d="m367.02 419.27c-7.118 4.856-14.235 9.715-21.352 14.457 27.227-42.808 36.715-89.121 41.234-136.22 0 40.551-4.742 81.215-19.882 121.76" fill="#927e6e"/>
   <path d="m397.63 371.27c-5.649 6.101-7.004 12.199-12.653 18.3 15.477-47.328 12.879-94.546 5.196-141.54 10.281 39.762 11.863 80.426 7.457 123.24" fill="#927e6e"/>
   <path d="m320.13 423.79c59.199 49.246 113.54 74.777 157.48 25.527 22.821-18.976 39.879-37.05 17.059 8.586-63.492 98.61-122.35 102-174.54-34.113" fill="#b79f84"/>
   <path d="m329.06 434.52c53.773 43.036 103.37 65.29 143.25 22.25 20.785-16.601 36.261-32.418 15.476 7.457-57.617 86.297-111.28 89.235-158.73-29.707" fill="#bfa68c"/>
   <path d="m337.98 445.14c48.465 36.824 93.086 56.027 129.01 19.089 18.641-14.234 32.649-27.675 14.008 6.438-51.965 73.875-100.32 76.359-143.02-25.527" fill="#c6ac93"/>
   <path d="m346.8 455.76c43.152 30.726 82.918 46.652 114.89 15.926 16.605-11.86 29.148-23.043 12.425 5.308-46.203 61.563-89.246 63.598-127.32-21.234" fill="#cdb39b"/>
   <path d="m355.72 466.49c37.847 24.512 72.64 37.164 100.66 12.653 14.57-9.489 25.531-18.414 10.957 4.293-40.559 49.023-78.289 50.718-111.62-16.946" fill="#d7bba4"/>
   <path d="m317.31 395.33c-24.852-17.625-43.719-38.18-61.004-59.531 5.195 19.883 15.136 35.922 29.824 48.234 10.394 7.34 20.785 9.715 31.18 11.297" fill="#c0a893"/>
   <path d="m492.53 318.06c9.266 12.765 15.141-0.903 20.563-18.524-12.766-35.809-30.277-70.598-58.18-102.79 16.153 38.629 28.918 78.844 37.617 121.31" fill="#bba38e"/>
   <path d="m278 181.16c7.453-3.84 12.199-10.957 15.926-19.43-0.902-9.714-2.824-16.601-5.649-20.667-19.996 11.519-23.496 24.847-10.277 40.097" fill="#c0a893"/>
   <path d="m278.22 177.66c6.101-3.164 10.054-9.039 13.105-16.039-0.789-8.023-2.371-13.672-4.633-16.945-16.492 9.375-19.316 20.445-8.472 32.984" fill="#c4ab96"/>
   <path d="m278.44 174.04c4.86-2.484 7.91-7.004 10.282-12.535-0.567-6.328-1.809-10.735-3.614-13.332-12.879 7.457-15.14 16.039-6.668 25.867" fill="#cab09a"/>
   <path d="m278.67 170.54c3.504-1.809 5.762-5.086 7.57-9.148-0.453-4.52-1.355-7.797-2.711-9.602-9.379 5.309-10.961 11.633-4.859 18.75" fill="#cfb59e"/>
   <path d="m325.9 264.86c-9.715-0.449-19.43-17.394-29.149-33.32 4.297 21.348 12.317 41.566 24.176 60.996 9.152-7.344 10.848-16.605 4.973-27.676" fill="#cfb59e"/>
   <path d="m490.719,142.191c-2.934-8.925-14.91-14.8-27.336-17.058 8.019.68 18.976,2.597 27,7.117 .226,3.051.113,6.891.336,9.941" fill="#78675a"/>
   <path d="m492.527,118.582c-2.937-8.133-14.91-11.184-27.339-10.504 8.023-1.242 18.98-1.922 27,.676 .226,3.051.117,6.891.339,9.828" fill="#78675a"/>
   <path d="m495.352,105.816c-4.18-8.1324-20.899-11.1793-38.297-10.5035 11.297-1.2422 26.55-1.918 37.847.6797 .336,3.0469.114,6.8908.45,9.8238" fill="#78675a"/>
   <path d="m496.145,86.8398c-3.051-5.9843-15.141-8.1328-27.793-7.6796 8.246-.7891 19.207-1.3555 27.453.5664 .226,2.1445.113,4.8554.34,7.1132" fill="#78675a"/>
   <path d="m444.74 159.59 12.992 5.648 1.016 5.649-14.008-11.297" fill="#907c6d"/>
   <path d="m465.87 182.63-17.961-2.145 15.477-1.808 2.484 3.953" fill="#907c6d"/>
   <path d="m426.66 313.77c8.813 22.704 20.223 43.711 40.332 58.848-1.242 3.613-2.371 7.117-3.613 10.731-8.473 4.179-40.559-65.176-36.719-69.579" fill="#8a7768"/>
   <path d="m426.66 312.3c2.375 24.285 7.57 47.668 22.934 67.66-2.032 3.047-4.18 6.211-6.325 9.262-9.265 1.808-21.464-73.762-16.609-76.922" fill="#8a7768"/>
   <path d="m314.48 153.82c-1.808-7.679-7.793-13.328-13.441-19.09 6.324 5.649 12.762 10.844 19.09 12.766-1.809 2.145-3.727 4.293-5.649 6.324" fill="#978372"/>
   <path d="m345.32 97.91c0.34-5.4219-0.789-10.844-3.386-16.379 3.386-12.875-1.016-29.934-10.735-51.848-6.89-10.73-21.465-9.375-38.973-5.082 0.676 7.0039 2.032 12.992 5.649 16.945-1.133 14.684-0.34 29.254 4.519 43.938 15.813 7.457 36.829 26.321 42.926 12.426" fill="#7d6c5e"/>
   <path d="m345.32 97.91c0.34-5.4219-0.789-10.844-3.386-16.379 3.386-12.875-1.016-29.934-10.735-51.848-6.89-10.73-21.465-9.375-38.973-5.082 0.676 7.0039 2.032 12.992 5.649 16.945-1.133 14.684-0.34 29.254 4.519 43.938 15.813 7.457 36.829 26.321 42.926 12.426z" fill="none" stroke="#231f20" stroke-width=".9"/>
   <path d="m341.03 82.773c-6.211-16.379-11.859-34.449-21.125-50.828-7.343-6.5508-14.683-8.6992-22.027-6.2148 1.809 19.316 3.051 38.746 7.906 58.062 12.09 9.0351 24.063 18.75 36.153 16.941 0.339-6.5504 0.449-11.406-0.907-17.961" fill="#978372"/>
   <path d="m338.55 81.305c-6.102-15.926-11.75-33.66-20.449-49.586-6.664-6.4375-13.102-8.4727-19.43-5.9883 2.375 18.867 4.293 37.73 9.266 56.594 10.843 8.8086 21.8 18.297 32.082 16.606 0.113-6.4414 0-11.184-1.469-17.625" fill="#9b8675"/>
   <path d="m336.06 79.84c-5.989-15.476-11.637-32.758-19.77-48.348-5.988-6.2109-11.637-8.2461-16.832-5.875 2.937 18.414 5.535 36.824 10.73 55.238 9.602 8.5859 19.321 17.848 28.016 16.152-0.223-6.2109-0.562-10.844-2.144-17.168" fill="#a18b7a"/>
   <path d="m333.58 78.484c-5.762-15.25-11.523-31.969-19.094-47.219-5.308-6.0976-10.054-8.0195-14.234-5.6484 3.504 17.961 6.664 35.922 12.086 53.77 8.477 8.3594 16.949 17.395 24.066 15.699-0.566-6.0976-1.132-10.504-2.824-16.602" fill="#a6907e"/>
   <path d="m176.43 85.711c-8.36-4.2929-20.11-8.6953-32.313-13.102 11.75 3.6133 30.277 4.8554 32.649 0.3398 0.453 2.4844-0.676 10.277-0.336 12.762" fill="#514941"/>
   <path d="m164.34 116.21c5.761 1.582 11.41 4.519 17.058 1.805 1.02 2.937 1.922 5.988 2.825 8.925-6.551-3.613-13.215-7.117-19.883-10.73" fill="#4a423b"/>
   <path d="m172.93 136.88c5.648 1.465 11.297 4.406 17.058 1.691 0.907 3.051 1.809 5.989 2.825 8.926-6.665-3.617-13.329-7.117-19.883-10.617" fill="#4a423b"/>
   <path d="m130.906,49.793c9.489,4.5156 22.481,4.7422 23.836-4.293 2.938,3.0469-1.355,8.8086-2.258,10.957-8.136.5625-15.367-1.582-21.578-6.664" fill="#4a423b"/>
   <path d="m301.27 34.09c9.601 4.6329 22.484 4.7461 23.839-4.2929 2.934 3.164-1.355 8.9258-2.261 11.07-8.133 0.5664-15.364-1.6953-21.578-6.7774" fill="#8c796a"/>
   <path d="m353.01 81.871c11.75 4.5195 27.68 4.7422 29.258-4.293 3.617 3.0508-1.692 8.8125-2.711 10.957-10.051 0.6796-18.864-1.5821-26.547-6.6641" fill="#6b5b4f"/>
   <path d="m350.07 89.664c11.637 4.5195 27.68 22.027 29.262 12.992 3.613 3.047-1.695 8.809-2.824 10.957-9.942 0.563-18.754-18.976-26.438-23.949" fill="#6b5b4f"/>
   <path d="m344.65 118.24c11.75 4.52 27.68 22.028 29.258 12.992 3.617 3.047-1.691 8.922-2.711 11.071-10.054 0.562-18.863-18.977-26.547-24.063" fill="#6b5b4f"/>
   <path d="m136.89 114.97c7.23-1.242 14.574-2.489 21.804-3.617 6.442-4.067 9.715-8.582 11.41-13.555-8.359-9.8242-20.785-17.734-36.601-13.441-2.145 8.5859-3.953 23.95 3.387 30.614" fill="#6b6157"/>
   <path d="m138.93 112.93c6.101-1.129 12.312-2.145 18.414-3.164 5.422-3.387 8.133-7.34 9.601-11.407-7.003-8.4727-17.621-13.781-31.066-10.168-1.809 7.2305-3.164 18.977 3.051 24.739" fill="#74695e"/>
   <path d="m140.85 110.79c5.082-0.906 10.054-1.809 15.136-2.598 4.52-2.824 6.668-5.988 7.911-9.3746-5.762-6.8906-14.688-9.7148-25.649-6.7773-1.469 5.9843-2.371 14.117 2.602 18.75" fill="#7c7266"/>
   <path d="m142.88 108.64c3.957-0.676 7.797-1.356 11.75-2.032 3.504-2.148 5.195-4.632 6.101-7.3434-4.406-5.3086-11.523-5.7578-20.109-3.3867-1.129 4.6291-1.695 9.1481 2.258 12.762" fill="#857a6d"/>
  </g>
 </g>
</svg>
